<svg width="201" height="20" viewBox="0 0 201 20" fill="none" xmlns="http://www.w3.org/2000/svg">
<g clip-path="url(#clip0_6_2016)">
<path d="M7.44195 17.4365H0.371765L0.371765 2.38629H6.94773C10.1023 2.38629 12.1843 3.89124 12.1843 6.42656C12.1843 7.93264 11.2151 9.14854 9.9172 9.64276C11.6477 9.88987 12.9675 11.4375 12.9675 13.1673C12.9675 15.8685 10.8233 17.4365 7.44195 17.4365ZM5.83499 5.74682H5.0725V8.55268H5.83499C7.19522 8.55268 7.89536 8.07735 7.89536 7.08627C7.89574 6.0763 7.15366 5.74682 5.83499 5.74682ZM6.59823 11.2724H5.0725V14.0775H6.59823C7.99927 14.0775 8.51503 13.541 8.51503 12.6152C8.5154 11.7039 7.83378 11.2724 6.59823 11.2724Z" fill="white" fill-opacity="0.58"/>
<path d="M26.9227 17.4365L26.1187 14.6941H21.7081L20.9052 17.4365H16.0991L21.3159 2.38626H26.7584L31.9741 17.4365H26.9227ZM23.9132 7.24947L22.7797 11.0657H25.0467L23.9132 7.24947Z" fill="white" fill-opacity="0.58"/>
<path d="M42.7237 17.6821C38.5584 17.6821 35.4257 15.5397 35.4257 10.5099V2.38628H40.4556V11.0279C40.4556 12.6526 41.3227 13.6838 42.7237 13.6838C44.1248 13.6838 44.9919 12.6526 44.9919 11.0279V2.38628H50.0225V10.5099C50.0225 15.5397 46.8868 17.6821 42.7237 17.6821Z" fill="white" fill-opacity="0.58"/>
<path d="M60.3372 17.6822C57.8857 17.6822 55.7634 16.7965 54.3605 15.5791L56.3604 12.3852C57.7603 13.5002 58.9773 14.0167 60.2767 14.0167C60.9984 14.0167 61.5134 13.7038 61.5134 13.1892C61.5134 12.4687 60.9372 12.2012 59.1016 11.6427C56.36 10.7982 54.9779 9.62277 54.9779 7.14828C54.9779 3.89128 57.5344 2.1396 61.1836 2.1396C63.1423 2.1396 65.0587 2.86053 66.0691 3.6642L64.0907 6.94236C63.0599 6.20103 62.1108 5.80996 60.9984 5.80996C60.05 5.80996 59.699 6.22181 59.699 6.65331C59.699 7.1275 60.0504 7.41731 62.0295 7.99389C64.7493 8.77603 66.2334 9.82794 66.2334 12.6523C66.2334 15.6645 63.9667 17.6822 60.3372 17.6822Z" fill="white" fill-opacity="0.58"/>
<path d="M78.2794 17.6822C73.7033 17.6822 70.4252 14.4682 70.4252 9.9753C70.4252 5.4786 73.828 2.13998 78.3617 2.13998C80.7739 2.13998 82.3828 3.17149 83.6806 4.28575L81.2069 7.64402C80.3628 6.81956 79.5576 6.24222 78.2586 6.24222C76.5882 6.24222 75.3507 7.68671 75.3507 9.85099C75.3507 12.0157 76.5477 13.5795 78.5488 13.5795C79.6608 13.5795 80.6923 13.0865 81.5776 12.2631L83.9916 15.5405C82.5467 16.7969 80.9182 17.6822 78.2794 17.6822Z" fill="white" fill-opacity="0.58"/>
<path d="M97.5865 17.4365V12.1792H93.7945V17.4365H88.7654V2.38626H93.7945V7.93299H97.5865V2.38626H102.62V17.4365H97.5865Z" fill="white" fill-opacity="0.58"/>
<path d="M130.958 17.4365V2.38623H135.784V13.6021H140.711V17.4365H130.958Z" fill="white" fill-opacity="0.58"/>
<path d="M151.566 17.6822C146.843 17.6822 143.482 14.4255 143.482 9.9326C143.482 5.43817 146.884 2.1396 151.607 2.1396C156.326 2.1396 159.688 5.39774 159.688 9.88991C159.688 14.3851 156.285 17.6822 151.566 17.6822ZM151.566 6.13907C149.73 6.13907 148.411 7.726 148.411 9.89029C148.411 12.0542 149.771 13.6842 151.607 13.6842C153.441 13.6842 154.759 12.0976 154.759 9.93298C154.759 7.76757 153.399 6.13907 151.566 6.13907Z" fill="white" fill-opacity="0.58"/>
<path d="M175.124 17.4365V10.0981L172.793 14.4682H170.504L168.112 10.0981V17.4365H163.371V2.38632H168.255L171.68 8.38911L174.852 2.38632H180.151V17.4365H175.124Z" fill="white" fill-opacity="0.58"/>
<path d="M191.985 17.4364H184.912V2.38622H191.49C194.646 2.38622 196.729 3.89116 196.729 6.42648C196.729 7.93256 195.759 9.14846 194.46 9.64268C196.191 9.88979 197.509 11.4374 197.509 13.1672C197.51 15.8684 195.367 17.4364 191.985 17.4364ZM190.377 5.74675H189.615V8.5526H190.377C191.739 8.5526 192.44 8.07728 192.44 7.0862C192.44 6.07622 191.698 5.74675 190.377 5.74675ZM191.142 11.2723H189.615V14.0774H191.142C192.544 14.0774 193.058 13.5409 193.058 12.6152C193.058 11.7038 192.377 11.2723 191.142 11.2723Z" fill="white" fill-opacity="0.58"/>
<path d="M119.219 7.4693H114.355V12.3563H119.219V7.4693Z" fill="white" fill-opacity="0.58"/>
<path d="M119.218 2.38622H114.356V7.47086H119.218V2.38622Z" fill="white" fill-opacity="0.58"/>
<path d="M119.218 12.3549H114.356V17.4387H119.218V12.3549Z" fill="white" fill-opacity="0.58"/>
<path d="M114.356 7.4693H109.249V12.3555H114.356V7.4693Z" fill="white" fill-opacity="0.58"/>
<path d="M124.299 7.46931H119.217V12.3556H124.299V7.46931Z" fill="white" fill-opacity="0.58"/>
</g>
<defs>
<clipPath id="clip0_6_2016">
<rect width="200.257" height="18.8921" fill="white" transform="translate(0.371765 0.464844)"/>
</clipPath>
</defs>
</svg>
