<svg width="83" height="78" viewBox="0 0 83 78" fill="none" xmlns="http://www.w3.org/2000/svg">
<g clip-path="url(#clip0_6_2013)">
<path d="M58.3189 33.1494C58.3189 33.6708 57.6241 34.3657 56.9295 35.4081C54.1505 38.8831 47.8982 44.9643 47.8982 60.2544C47.8982 68.0731 49.1141 71.3741 49.1141 75.0232C49.1141 76.7607 48.7667 77.6293 47.8982 77.6293C45.9879 77.6293 42.5144 69.2891 42.5144 59.3855C42.5144 38.362 55.7136 32.6281 57.7978 32.6281C58.1452 32.6281 58.3189 32.8019 58.3189 33.1494ZM25.1469 32.6281C27.231 32.6281 40.2565 38.362 40.2565 59.2118C40.2565 69.1158 36.9569 77.4556 34.8727 77.4556C34.0042 77.4556 33.657 76.5867 33.657 74.8492C33.657 71.2004 34.8727 67.8993 34.8727 60.0806C34.8727 44.9643 28.6204 38.7093 25.8416 35.2345C24.9731 34.1919 24.4523 33.497 24.4523 32.9757C24.6257 32.8019 24.7994 32.6281 25.1469 32.6281Z" fill="white" fill-opacity="0.58"/>
<path d="M36.6162 36.7997C36.6162 39.5796 38.7002 41.6647 41.4792 41.6647C44.0842 41.6647 46.1682 39.5796 46.1682 36.7997C46.1682 34.0197 44.0842 31.9347 41.3054 31.9347C38.8739 31.9347 36.6162 34.0197 36.6162 36.7997Z" fill="white" fill-opacity="0.58"/>
<path d="M41.5012 14.072C39.5909 13.2032 37.6804 11.4657 37.6804 7.99074C37.6804 4.68903 39.2435 1.38853 41.5012 -0.00182343C43.7591 1.38853 45.3222 4.68903 45.3222 7.99074C45.3222 11.4657 43.4117 13.0293 41.5012 14.072ZM82.4886 67.7603C75.7154 63.5904 65.2949 59.2467 50.1851 57.8565C50.1851 58.0303 50.0114 59.0729 50.0114 60.2893C50.0114 60.8102 50.0114 61.5051 50.1851 61.5051C64.9473 62.374 75.3678 65.5017 82.4886 68.108C82.6624 68.108 82.8362 68.2811 82.8362 68.2811C82.8362 68.2811 83.01 68.2811 83.01 68.108C82.8362 67.934 82.6624 67.9341 82.4886 67.7603ZM49.3166 11.6396C48.1009 10.597 47.2326 9.03336 47.9272 6.6004C48.622 4.3419 50.3588 2.43054 52.2693 1.90953C53.485 3.47315 54.0058 5.90552 53.3113 8.33788C52.4427 10.597 50.7062 11.2919 49.3166 11.6396ZM60.2584 20.848C59.911 19.458 59.911 17.7206 61.8214 15.9833C63.5581 14.4191 65.9894 13.8981 67.7262 14.4191C68.0738 16.3304 67.0316 18.5894 65.2949 19.9794C63.3843 21.7167 61.6476 21.3693 60.2584 20.848ZM60.6054 34.748C61.1268 33.358 61.9952 31.968 64.4265 31.6204C66.684 31.4467 68.9422 32.1418 70.1575 33.7055C69.2892 35.443 67.3786 36.6592 65.1211 36.833C62.6897 37.1806 61.4738 35.9644 60.6054 34.748ZM56.6111 39.7867C57.4794 38.7443 58.695 37.7016 60.7792 38.2229C62.6897 38.5705 64.4265 39.9605 65.1211 41.5242C64.0789 42.7404 61.9952 43.2617 59.911 42.9142C57.8268 42.3928 56.9585 41.0029 56.6111 39.7867ZM44.6273 26.5816C43.238 25.3655 42.0223 23.4542 42.8908 20.5005C43.7591 17.7206 45.8432 15.4617 48.1009 14.9407C49.664 16.6782 50.1851 19.8056 49.3166 22.5855C48.4483 25.3655 46.3641 26.4079 44.6273 26.5816ZM49.8377 29.7092C49.3166 28.1454 49.4903 26.0606 51.5745 24.3231C53.4849 22.5855 56.2637 21.8904 58.3479 22.5855C58.695 24.6706 57.4794 27.2767 55.5689 28.8405C53.3113 30.578 51.4008 30.4042 49.8377 29.7092ZM53.3113 18.4156C52.4427 16.8521 51.7481 14.593 53.485 11.9867C55.048 9.55436 57.8268 7.81687 60.2584 7.99074C61.3 10.0754 60.953 13.3771 59.2162 15.8094C57.4794 18.4156 55.2217 18.7629 53.3113 18.4156ZM60.4316 28.1454C60.4316 26.4079 61.1268 24.3231 63.7319 23.1068C66.337 22.0642 69.1154 22.238 71.0259 23.4542C70.6789 25.5393 68.9422 27.7981 66.337 29.0143C63.7319 30.2305 61.8214 29.3619 60.4316 28.1454ZM-0.00714111 68.108C0.16656 68.2811 0.340262 68.108 0.513963 68.108C7.63457 65.5017 18.055 62.374 32.8175 61.5051C32.8175 61.3313 32.9912 60.6364 32.9912 60.2893C32.9912 59.2467 32.8175 58.0303 32.8175 57.8565C17.7079 59.2467 7.46083 63.5904 0.513963 67.7603C0.16656 67.9341 -0.00714111 67.934 -0.00714111 68.108ZM29.6914 8.16401C28.9966 5.90551 29.344 3.29929 30.7333 1.73566C32.6438 2.25667 34.3806 4.16803 35.0752 6.42653C35.77 8.85949 34.9017 10.4231 33.6858 11.4657C32.1227 11.2918 30.3859 10.597 29.6914 8.16401ZM17.5341 20.1529C15.7974 18.5894 14.7551 16.3304 15.1025 14.593C16.8393 14.072 19.2709 14.593 21.0074 16.1566C22.9179 17.7206 22.9179 19.458 22.5705 21.0218C21.1812 21.3693 19.4444 21.7167 17.5341 20.1529ZM17.8813 36.833C15.6236 36.6592 13.5395 35.2693 12.6712 33.7055C13.8869 32.3155 16.1448 31.4467 18.4024 31.6204C20.834 31.7942 21.7023 33.358 22.2233 34.748C21.5286 35.9644 20.1392 37.1806 17.8813 36.833ZM23.0917 42.7404C21.1812 43.088 19.0972 42.5667 17.8813 41.3505C18.4024 39.7867 20.1392 38.5705 22.2233 38.2229C24.3073 37.7016 25.5232 38.7443 26.2178 39.7867C25.8704 41.0029 25.1758 42.3928 23.0917 42.7404ZM33.5121 22.5855C32.6438 19.8056 33.1649 16.6782 34.728 14.9407C36.9856 15.6356 39.0698 17.8943 39.9383 20.5005C40.8066 23.4542 39.5909 25.3655 38.3753 26.5816C36.4648 26.4079 34.3806 25.3655 33.5121 22.5855ZM27.4335 28.8405C25.5232 27.103 24.3073 24.6706 24.6547 22.5855C26.7389 21.8904 29.344 22.5855 31.4281 24.3231C33.5121 26.0606 33.5121 28.1454 33.1649 29.7092C31.4281 30.4042 29.5176 30.578 27.4335 28.8405ZM23.7864 15.8094C22.2233 13.3771 21.8759 10.2492 22.7443 7.99074C25.1758 7.99074 27.7809 9.55436 29.5176 11.9867C31.2545 14.593 30.5596 16.6782 29.5176 18.4156C27.6072 18.7629 25.3495 18.4156 23.7864 15.8094ZM16.4919 29.0143C14.0606 27.7981 12.1501 25.5393 11.8027 23.4542C13.7131 22.238 16.6656 22.0642 19.0972 23.2804C21.7023 24.4968 22.3971 26.4079 22.3971 28.3192C21.0074 29.3619 19.0972 30.2305 16.4919 29.0143Z" fill="white" fill-opacity="0.58"/>
</g>
<defs>
<clipPath id="clip0_6_2013">
<rect width="83.0141" height="77.6294" fill="white" transform="translate(-0.00708008)"/>
</clipPath>
</defs>
</svg>
