<svg width="130" height="30" viewBox="0 0 130 30" fill="none" xmlns="http://www.w3.org/2000/svg">
<rect x="1.11254" y="1.19276" width="127.591" height="28.4221" rx="2.60828" fill="white"/>
<rect x="1.11254" y="1.19276" width="127.591" height="28.4221" rx="2.60828" stroke="url(#paint0_linear_6_2032)" stroke-width="0.745222"/>
<path d="M6.4417 19.4038V10.8676H9.42603C10.0207 10.8676 10.5111 10.9704 10.8974 11.1761C11.2836 11.3789 11.5712 11.6526 11.7601 11.9972C11.9491 12.3389 12.0436 12.7182 12.0436 13.135C12.0436 13.5018 11.9783 13.8047 11.8477 14.0437C11.7198 14.2826 11.5503 14.4716 11.3392 14.6105C11.1308 14.7495 10.9043 14.8523 10.6598 14.919V15.0023C10.921 15.019 11.1836 15.1107 11.4475 15.2774C11.7115 15.4441 11.9324 15.6831 12.1103 15.9943C12.2881 16.3055 12.377 16.6862 12.377 17.1364C12.377 17.5643 12.2798 17.9491 12.0852 18.2909C11.8907 18.6327 11.5837 18.9036 11.1641 19.1037C10.7445 19.3038 10.1985 19.4038 9.52606 19.4038H6.4417ZM7.47538 18.4868H9.52606C10.2013 18.4868 10.6806 18.3562 10.964 18.095C11.2502 17.8311 11.3933 17.5115 11.3933 17.1364C11.3933 16.8474 11.3197 16.5806 11.1724 16.3361C11.0252 16.0888 10.8154 15.8915 10.5431 15.7442C10.2708 15.5942 9.94842 15.5192 9.57608 15.5192H7.47538V18.4868ZM7.47538 14.6189H9.39268C9.7039 14.6189 9.98455 14.5577 10.2346 14.4355C10.4875 14.3132 10.6876 14.1409 10.8348 13.9186C10.9849 13.6963 11.0599 13.4351 11.0599 13.135C11.0599 12.7599 10.9293 12.4418 10.6681 12.1806C10.4069 11.9166 9.99288 11.7846 9.42603 11.7846H7.47538V14.6189ZM16.543 19.5372C15.965 19.5372 15.4579 19.3996 15.0216 19.1245C14.5882 18.8494 14.2492 18.4646 14.0046 17.97C13.7629 17.4754 13.642 16.8974 13.642 16.2361C13.642 15.5692 13.7629 14.9871 14.0046 14.4897C14.2492 13.9923 14.5882 13.606 15.0216 13.3309C15.4579 13.0559 15.965 12.9183 16.543 12.9183C17.121 12.9183 17.6267 13.0559 18.0602 13.3309C18.4964 13.606 18.8354 13.9923 19.0772 14.4897C19.3217 14.9871 19.4439 15.5692 19.4439 16.2361C19.4439 16.8974 19.3217 17.4754 19.0772 17.97C18.8354 18.4646 18.4964 18.8494 18.0602 19.1245C17.6267 19.3996 17.121 19.5372 16.543 19.5372ZM16.543 18.6536C16.982 18.6536 17.3432 18.541 17.6267 18.3159C17.9101 18.0909 18.1199 17.7949 18.2561 17.4281C18.3922 17.0614 18.4603 16.664 18.4603 16.2361C18.4603 15.8082 18.3922 15.4094 18.2561 15.0398C18.1199 14.6703 17.9101 14.3716 17.6267 14.1437C17.3432 13.9159 16.982 13.8019 16.543 13.8019C16.1039 13.8019 15.7427 13.9159 15.4593 14.1437C15.1759 14.3716 14.9661 14.6703 14.8299 15.0398C14.6938 15.4094 14.6257 15.8082 14.6257 16.2361C14.6257 16.664 14.6938 17.0614 14.8299 17.4281C14.9661 17.7949 15.1759 18.0909 15.4593 18.3159C15.7427 18.541 16.1039 18.6536 16.543 18.6536ZM23.5464 19.5372C22.9684 19.5372 22.4613 19.3996 22.025 19.1245C21.5915 18.8494 21.2525 18.4646 21.008 17.97C20.7663 17.4754 20.6454 16.8974 20.6454 16.2361C20.6454 15.5692 20.7663 14.9871 21.008 14.4897C21.2525 13.9923 21.5915 13.606 22.025 13.3309C22.4613 13.0559 22.9684 12.9183 23.5464 12.9183C24.1243 12.9183 24.6301 13.0559 25.0635 13.3309C25.4998 13.606 25.8388 13.9923 26.0805 14.4897C26.3251 14.9871 26.4473 15.5692 26.4473 16.2361C26.4473 16.8974 26.3251 17.4754 26.0805 17.97C25.8388 18.4646 25.4998 18.8494 25.0635 19.1245C24.6301 19.3996 24.1243 19.5372 23.5464 19.5372ZM23.5464 18.6536C23.9854 18.6536 24.3466 18.541 24.6301 18.3159C24.9135 18.0909 25.1233 17.7949 25.2594 17.4281C25.3956 17.0614 25.4637 16.664 25.4637 16.2361C25.4637 15.8082 25.3956 15.4094 25.2594 15.0398C25.1233 14.6703 24.9135 14.3716 24.6301 14.1437C24.3466 13.9159 23.9854 13.8019 23.5464 13.8019C23.1073 13.8019 22.7461 13.9159 22.4627 14.1437C22.1792 14.3716 21.9694 14.6703 21.8333 15.0398C21.6971 15.4094 21.6291 15.8082 21.6291 16.2361C21.6291 16.664 21.6971 17.0614 21.8333 17.4281C21.9694 17.7949 22.1792 18.0909 22.4627 18.3159C22.7461 18.541 23.1073 18.6536 23.5464 18.6536ZM28.8658 17.0697L28.8492 15.8526H29.0492L31.8502 13.0017H33.0672L30.0829 16.0193H29.9996L28.8658 17.0697ZM27.9489 19.4038V10.8676H28.9325V19.4038H27.9489ZM32.0169 19.4038L29.5161 16.2361L30.2163 15.5525L33.2673 19.4038H32.0169ZM39.5184 19.5539C39.1127 19.5539 38.7445 19.4774 38.4138 19.3246C38.0831 19.169 37.8206 18.9453 37.6261 18.6536C37.4315 18.359 37.3343 18.0033 37.3343 17.5865C37.3343 17.2197 37.4065 16.9224 37.551 16.6946C37.6955 16.4639 37.8886 16.2833 38.1304 16.1527C38.3721 16.0221 38.6389 15.9249 38.9307 15.861C39.2252 15.7943 39.5211 15.7415 39.8185 15.7026C40.2075 15.6526 40.5229 15.615 40.7646 15.59C41.0091 15.5622 41.187 15.5164 41.2981 15.4525C41.412 15.3886 41.469 15.2774 41.469 15.119V15.0857C41.469 14.6744 41.3565 14.3549 41.1314 14.127C40.9091 13.8992 40.5715 13.7853 40.1186 13.7853C39.6489 13.7853 39.2808 13.8881 39.014 14.0937C38.7473 14.2993 38.5597 14.5188 38.4513 14.7522L37.5177 14.4188C37.6844 14.0298 37.9067 13.7269 38.1846 13.5102C38.4652 13.2907 38.7709 13.1378 39.1015 13.0517C39.435 12.9628 39.7629 12.9183 40.0852 12.9183C40.2908 12.9183 40.527 12.9433 40.7938 12.9933C41.0633 13.0406 41.3231 13.1392 41.5732 13.2893C41.8261 13.4393 42.0359 13.6658 42.2026 13.9687C42.3693 14.2715 42.4527 14.6772 42.4527 15.1857V19.4038H41.469V18.5368H41.419C41.3523 18.6758 41.2411 18.8244 41.0855 18.9828C40.9299 19.1412 40.7229 19.276 40.4645 19.3871C40.2061 19.4983 39.8907 19.5539 39.5184 19.5539ZM39.6684 18.6702C40.0574 18.6702 40.3853 18.5938 40.6521 18.441C40.9216 18.2882 41.1244 18.0909 41.2606 17.8491C41.3995 17.6074 41.469 17.3531 41.469 17.0864V16.1861C41.4273 16.2361 41.3356 16.2819 41.1939 16.3236C41.055 16.3625 40.8938 16.3972 40.7104 16.4278C40.5298 16.4556 40.3534 16.4806 40.1811 16.5028C40.0116 16.5223 39.874 16.539 39.7684 16.5529C39.5128 16.5862 39.2738 16.6404 39.0515 16.7154C38.832 16.7877 38.6542 16.8974 38.518 17.0447C38.3846 17.1892 38.318 17.3865 38.318 17.6365C38.318 17.9783 38.4444 18.2367 38.6972 18.4118C38.9529 18.5841 39.2766 18.6702 39.6684 18.6702ZM45.2317 15.5525V19.4038H44.2481V13.0017H45.1984V14.002H45.2817C45.4318 13.6769 45.6596 13.4157 45.9653 13.2184C46.2709 13.0183 46.6655 12.9183 47.149 12.9183C47.5825 12.9183 47.9618 13.0072 48.2869 13.1851C48.612 13.3601 48.8649 13.6269 49.0455 13.9853C49.2261 14.341 49.3164 14.7912 49.3164 15.3358V19.4038H48.3327V15.4025C48.3327 14.8995 48.2021 14.5077 47.9409 14.2271C47.6798 13.9436 47.3213 13.8019 46.8656 13.8019C46.5516 13.8019 46.2709 13.87 46.0236 14.0062C45.7791 14.1423 45.586 14.341 45.4443 14.6022C45.3026 14.8634 45.2317 15.1802 45.2317 15.5525ZM56.2989 19.5539C55.8933 19.5539 55.5251 19.4774 55.1944 19.3246C54.8637 19.169 54.6012 18.9453 54.4066 18.6536C54.2121 18.359 54.1149 18.0033 54.1149 17.5865C54.1149 17.2197 54.1871 16.9224 54.3316 16.6946C54.4761 16.4639 54.6692 16.2833 54.911 16.1527C55.1527 16.0221 55.4195 15.9249 55.7112 15.861C56.0058 15.7943 56.3017 15.7415 56.599 15.7026C56.9881 15.6526 57.3034 15.615 57.5452 15.59C57.7897 15.5622 57.9676 15.5164 58.0787 15.4525C58.1926 15.3886 58.2496 15.2774 58.2496 15.119V15.0857C58.2496 14.6744 58.1371 14.3549 57.912 14.127C57.6897 13.8992 57.3521 13.7853 56.8991 13.7853C56.4295 13.7853 56.0614 13.8881 55.7946 14.0937C55.5279 14.2993 55.3403 14.5188 55.2319 14.7522L54.2983 14.4188C54.465 14.0298 54.6873 13.7269 54.9652 13.5102C55.2458 13.2907 55.5515 13.1378 55.8821 13.0517C56.2156 12.9628 56.5435 12.9183 56.8658 12.9183C57.0714 12.9183 57.3076 12.9433 57.5744 12.9933C57.8439 13.0406 58.1037 13.1392 58.3538 13.2893C58.6067 13.4393 58.8165 13.6658 58.9832 13.9687C59.1499 14.2715 59.2333 14.6772 59.2333 15.1857V19.4038H58.2496V18.5368H58.1996C58.1329 18.6758 58.0217 18.8244 57.8661 18.9828C57.7105 19.1412 57.5035 19.276 57.2451 19.3871C56.9867 19.4983 56.6713 19.5539 56.2989 19.5539ZM56.449 18.6702C56.838 18.6702 57.1659 18.5938 57.4327 18.441C57.7022 18.2882 57.905 18.0909 58.0412 17.8491C58.1801 17.6074 58.2496 17.3531 58.2496 17.0864V16.1861C58.2079 16.2361 58.1162 16.2819 57.9745 16.3236C57.8356 16.3625 57.6744 16.3972 57.491 16.4278C57.3104 16.4556 57.1339 16.4806 56.9617 16.5028C56.7922 16.5223 56.6546 16.539 56.549 16.5529C56.2934 16.5862 56.0544 16.6404 55.8321 16.7154C55.6126 16.7877 55.4348 16.8974 55.2986 17.0447C55.1652 17.1892 55.0985 17.3865 55.0985 17.6365C55.0985 17.9783 55.225 18.2367 55.4778 18.4118C55.7335 18.5841 56.0572 18.6702 56.449 18.6702ZM61.0286 21.8046V13.0017H61.979V14.0187H62.0957C62.1679 13.9075 62.2679 13.7658 62.3958 13.5935C62.5264 13.4185 62.7125 13.2629 62.9543 13.1267C63.1988 12.9878 63.5295 12.9183 63.9463 12.9183C64.4854 12.9183 64.9605 13.0531 65.3718 13.3226C65.783 13.5921 66.1039 13.9742 66.3346 14.4688C66.5652 14.9634 66.6805 15.547 66.6805 16.2194C66.6805 16.8974 66.5652 17.4851 66.3346 17.9825C66.1039 18.4771 65.7844 18.8606 65.3759 19.1329C64.9675 19.4024 64.4965 19.5372 63.963 19.5372C63.5517 19.5372 63.2224 19.4691 62.9751 19.3329C62.7278 19.194 62.5375 19.037 62.4041 18.862C62.2707 18.6841 62.1679 18.5368 62.0957 18.4201H62.0123V21.8046H61.0286ZM61.9956 16.2027C61.9956 16.6862 62.0665 17.1128 62.2082 17.4823C62.3499 17.8491 62.5569 18.1367 62.8292 18.3451C63.1016 18.5507 63.435 18.6536 63.8296 18.6536C64.2408 18.6536 64.584 18.5452 64.8591 18.3284C65.137 18.1089 65.3454 17.8144 65.4843 17.4448C65.626 17.0725 65.6969 16.6584 65.6969 16.2027C65.6969 15.7526 65.6274 15.3469 65.4885 14.9857C65.3523 14.6217 65.1453 14.3341 64.8674 14.1229C64.5923 13.9089 64.2464 13.8019 63.8296 13.8019C63.4294 13.8019 63.0932 13.9034 62.8209 14.1062C62.5486 14.3063 62.343 14.5869 62.204 14.9481C62.0651 15.3066 61.9956 15.7248 61.9956 16.2027ZM68.181 21.8046V13.0017H69.1313V14.0187H69.2481C69.3203 13.9075 69.4203 13.7658 69.5482 13.5935C69.6788 13.4185 69.8649 13.2629 70.1067 13.1267C70.3512 12.9878 70.6819 12.9183 71.0987 12.9183C71.6377 12.9183 72.1129 13.0531 72.5241 13.3226C72.9354 13.5921 73.2563 13.9742 73.487 14.4688C73.7176 14.9634 73.8329 15.547 73.8329 16.2194C73.8329 16.8974 73.7176 17.4851 73.487 17.9825C73.2563 18.4771 72.9368 18.8606 72.5283 19.1329C72.1198 19.4024 71.6489 19.5372 71.1153 19.5372C70.7041 19.5372 70.3748 19.4691 70.1275 19.3329C69.8802 19.194 69.6899 19.037 69.5565 18.862C69.4231 18.6841 69.3203 18.5368 69.2481 18.4201H69.1647V21.8046H68.181ZM69.148 16.2027C69.148 16.6862 69.2189 17.1128 69.3606 17.4823C69.5023 17.8491 69.7093 18.1367 69.9816 18.3451C70.2539 18.5507 70.5874 18.6536 70.982 18.6536C71.3932 18.6536 71.7364 18.5452 72.0115 18.3284C72.2893 18.1089 72.4977 17.8144 72.6367 17.4448C72.7784 17.0725 72.8493 16.6584 72.8493 16.2027C72.8493 15.7526 72.7798 15.3469 72.6409 14.9857C72.5047 14.6217 72.2977 14.3341 72.0198 14.1229C71.7447 13.9089 71.3988 13.8019 70.982 13.8019C70.5818 13.8019 70.2456 13.9034 69.9733 14.1062C69.701 14.3063 69.4954 14.5869 69.3564 14.9481C69.2175 15.3066 69.148 15.7248 69.148 16.2027ZM77.9343 19.5372C77.3563 19.5372 76.8492 19.3996 76.4129 19.1245C75.9795 18.8494 75.6405 18.4646 75.3959 17.97C75.1542 17.4754 75.0333 16.8974 75.0333 16.2361C75.0333 15.5692 75.1542 14.9871 75.3959 14.4897C75.6405 13.9923 75.9795 13.606 76.4129 13.3309C76.8492 13.0559 77.3563 12.9183 77.9343 12.9183C78.5123 12.9183 79.018 13.0559 79.4515 13.3309C79.8877 13.606 80.2267 13.9923 80.4685 14.4897C80.713 14.9871 80.8352 15.5692 80.8352 16.2361C80.8352 16.8974 80.713 17.4754 80.4685 17.97C80.2267 18.4646 79.8877 18.8494 79.4515 19.1245C79.018 19.3996 78.5123 19.5372 77.9343 19.5372ZM77.9343 18.6536C78.3733 18.6536 78.7345 18.541 79.018 18.3159C79.3014 18.0909 79.5112 17.7949 79.6474 17.4281C79.7835 17.0614 79.8516 16.664 79.8516 16.2361C79.8516 15.8082 79.7835 15.4094 79.6474 15.0398C79.5112 14.6703 79.3014 14.3716 79.018 14.1437C78.7345 13.9159 78.3733 13.8019 77.9343 13.8019C77.4952 13.8019 77.134 13.9159 76.8506 14.1437C76.5672 14.3716 76.3574 14.6703 76.2212 15.0398C76.0851 15.4094 76.017 15.8082 76.017 16.2361C76.017 16.664 76.0851 17.0614 76.2212 17.4281C76.3574 17.7949 76.5672 18.0909 76.8506 18.3159C77.134 18.541 77.4952 18.6536 77.9343 18.6536ZM82.3368 19.4038V13.0017H83.3205V19.4038H82.3368ZM82.837 11.9346C82.6452 11.9346 82.4799 11.8693 82.341 11.7387C82.2048 11.6081 82.1367 11.4511 82.1367 11.2678C82.1367 11.0844 82.2048 10.9274 82.341 10.7968C82.4799 10.6662 82.6452 10.6009 82.837 10.6009C83.0287 10.6009 83.1926 10.6662 83.3288 10.7968C83.4677 10.9274 83.5372 11.0844 83.5372 11.2678C83.5372 11.4511 83.4677 11.6081 83.3288 11.7387C83.1926 11.8693 83.0287 11.9346 82.837 11.9346ZM86.1058 15.5525V19.4038H85.1221V13.0017H86.0724V14.002H86.1558C86.3058 13.6769 86.5337 13.4157 86.8393 13.2184C87.145 13.0183 87.5396 12.9183 88.0231 12.9183C88.4565 12.9183 88.8358 13.0072 89.1609 13.1851C89.486 13.3601 89.7389 13.6269 89.9195 13.9853C90.1001 14.341 90.1905 14.7912 90.1905 15.3358V19.4038H89.2068V15.4025C89.2068 14.8995 89.0762 14.5077 88.815 14.2271C88.5538 13.9436 88.1953 13.8019 87.7396 13.8019C87.4256 13.8019 87.145 13.87 86.8977 14.0062C86.6532 14.1423 86.46 14.341 86.3183 14.6022C86.1766 14.8634 86.1058 15.1802 86.1058 15.5525ZM94.7722 13.0017V13.8353H91.4544V13.0017H94.7722ZM92.4214 11.4678H93.4051V17.5699C93.4051 17.8477 93.4454 18.0561 93.5259 18.1951C93.6093 18.3312 93.7149 18.4229 93.8427 18.4702C93.9733 18.5146 94.1109 18.5368 94.2554 18.5368C94.3637 18.5368 94.4526 18.5313 94.5221 18.5202C94.5916 18.5063 94.6472 18.4952 94.6888 18.4868L94.8889 19.3705C94.8222 19.3955 94.7291 19.4205 94.6096 19.4455C94.4902 19.4733 94.3387 19.4872 94.1553 19.4872C93.8775 19.4872 93.6051 19.4274 93.3384 19.3079C93.0744 19.1885 92.8549 19.0064 92.6798 18.7619C92.5075 18.5174 92.4214 18.209 92.4214 17.8366V11.4678ZM96.2518 19.4038V13.0017H97.2022V14.002H97.2855C97.4189 13.6602 97.6343 13.3949 97.9316 13.2059C98.2289 13.0142 98.586 12.9183 99.0028 12.9183C99.4251 12.9183 99.7766 13.0142 100.057 13.2059C100.341 13.3949 100.562 13.6602 100.72 14.002H100.787C100.951 13.6713 101.197 13.4087 101.524 13.2142C101.852 13.0169 102.246 12.9183 102.704 12.9183C103.276 12.9183 103.745 13.0975 104.109 13.456C104.473 13.8117 104.655 14.366 104.655 15.119V19.4038H103.671V15.119C103.671 14.6467 103.542 14.309 103.283 14.1062C103.025 13.9034 102.721 13.8019 102.371 13.8019C101.92 13.8019 101.572 13.9381 101.324 14.2104C101.077 14.4799 100.953 14.8217 100.953 15.2357V19.4038H99.9531V15.019C99.9531 14.655 99.835 14.3618 99.5988 14.1395C99.3626 13.9145 99.0583 13.8019 98.686 13.8019C98.4304 13.8019 98.1914 13.87 97.9691 14.0062C97.7496 14.1423 97.5717 14.3313 97.4356 14.573C97.3022 14.812 97.2355 15.0885 97.2355 15.4025V19.4038H96.2518ZM109.137 19.5372C108.521 19.5372 107.988 19.401 107.541 19.1287C107.096 18.8536 106.753 18.4702 106.512 17.9783C106.273 17.4837 106.153 16.9085 106.153 16.2528C106.153 15.597 106.273 15.019 106.512 14.5188C106.753 14.0159 107.089 13.6241 107.52 13.3434C107.954 13.06 108.459 12.9183 109.037 12.9183C109.371 12.9183 109.7 12.9739 110.025 13.085C110.35 13.1962 110.646 13.3768 110.913 13.6269C111.18 13.8742 111.392 14.2021 111.551 14.6105C111.709 15.019 111.788 15.522 111.788 16.1194V16.5362H106.853V15.6859H110.788C110.788 15.3247 110.716 15.0023 110.571 14.7189C110.429 14.4355 110.227 14.2118 109.963 14.0478C109.701 13.8839 109.393 13.8019 109.037 13.8019C108.646 13.8019 108.307 13.8992 108.02 14.0937C107.737 14.2854 107.519 14.5355 107.366 14.8439C107.213 15.1524 107.137 15.483 107.137 15.8359V16.4028C107.137 16.8863 107.22 17.2962 107.387 17.6324C107.556 17.9658 107.791 18.2201 108.091 18.3951C108.391 18.5674 108.74 18.6536 109.137 18.6536C109.396 18.6536 109.629 18.6174 109.838 18.5452C110.049 18.4702 110.231 18.359 110.384 18.2117C110.536 18.0617 110.655 17.8755 110.738 17.6532L111.688 17.92C111.588 18.2423 111.42 18.5257 111.184 18.7703C110.948 19.012 110.656 19.201 110.309 19.3371C109.961 19.4705 109.571 19.5372 109.137 19.5372ZM114.268 15.5525V19.4038H113.285V13.0017H114.235V14.002H114.318C114.468 13.6769 114.696 13.4157 115.002 13.2184C115.308 13.0183 115.702 12.9183 116.186 12.9183C116.619 12.9183 116.998 13.0072 117.323 13.1851C117.649 13.3601 117.901 13.6269 118.082 13.9853C118.263 14.341 118.353 14.7912 118.353 15.3358V19.4038H117.369V15.4025C117.369 14.8995 117.239 14.5077 116.978 14.2271C116.716 13.9436 116.358 13.8019 115.902 13.8019C115.588 13.8019 115.308 13.87 115.06 14.0062C114.816 14.1423 114.623 14.341 114.481 14.6022C114.339 14.8634 114.268 15.1802 114.268 15.5525ZM122.935 13.0017V13.8353H119.617V13.0017H122.935ZM120.584 11.4678H121.568V17.5699C121.568 17.8477 121.608 18.0561 121.688 18.1951C121.772 18.3312 121.877 18.4229 122.005 18.4702C122.136 18.5146 122.273 18.5368 122.418 18.5368C122.526 18.5368 122.615 18.5313 122.685 18.5202C122.754 18.5063 122.81 18.4952 122.851 18.4868L123.051 19.3705C122.985 19.3955 122.892 19.4205 122.772 19.4455C122.653 19.4733 122.501 19.4872 122.318 19.4872C122.04 19.4872 121.768 19.4274 121.501 19.3079C121.237 19.1885 121.017 19.0064 120.842 18.7619C120.67 18.5174 120.584 18.209 120.584 17.8366V11.4678Z" fill="black"/>
<defs>
<linearGradient id="paint0_linear_6_2032" x1="0.739929" y1="15.4038" x2="115.836" y2="15.4038" gradientUnits="userSpaceOnUse">
<stop/>
<stop offset="0.0001" stop-color="#DDD3EF" stop-opacity="0.55"/>
<stop offset="0.4375" stop-color="#FDD9FF"/>
<stop offset="1" stop-color="#C1E7FF"/>
</linearGradient>
</defs>
</svg>
