<svg width="130" height="30" viewBox="0 0 130 30" fill="none" xmlns="http://www.w3.org/2000/svg">
<rect x="1.16802" y="1.10674" width="127.591" height="28.4221" rx="2.60828" fill="white"/>
<rect x="1.16802" y="1.10674" width="127.591" height="28.4221" rx="2.60828" stroke="url(#paint0_linear_6_2050)" stroke-width="0.745222"/>
<path d="M6.49718 19.3178V10.7816H9.48151C10.0762 10.7816 10.5666 10.8844 10.9528 11.09C11.3391 11.2929 11.6267 11.5666 11.8156 11.9111C12.0046 12.2529 12.099 12.6322 12.099 13.049C12.099 13.4158 12.0337 13.7187 11.9031 13.9577C11.7753 14.1966 11.6058 14.3856 11.3946 14.5245C11.1862 14.6634 10.9598 14.7663 10.7153 14.833V14.9163C10.9765 14.933 11.239 15.0247 11.503 15.1914C11.767 15.3581 11.9879 15.5971 12.1657 15.9083C12.3436 16.2195 12.4325 16.6002 12.4325 17.0504C12.4325 17.4783 12.3352 17.8631 12.1407 18.2049C11.9462 18.5467 11.6392 18.8176 11.2196 19.0177C10.8 19.2177 10.254 19.3178 9.58154 19.3178H6.49718ZM7.53086 18.4008H9.58154C10.2568 18.4008 10.7361 18.2702 11.0195 18.009C11.3057 17.745 11.4488 17.4255 11.4488 17.0504C11.4488 16.7614 11.3752 16.4946 11.2279 16.2501C11.0807 16.0028 10.8709 15.8055 10.5985 15.6582C10.3262 15.5082 10.0039 15.4332 9.63156 15.4332H7.53086V18.4008ZM7.53086 14.5329H9.44816C9.75938 14.5329 10.04 14.4717 10.2901 14.3495C10.543 14.2272 10.743 14.0549 10.8903 13.8326C11.0404 13.6103 11.1154 13.3491 11.1154 13.049C11.1154 12.6739 10.9848 12.3557 10.7236 12.0945C10.4624 11.8306 10.0484 11.6986 9.48151 11.6986H7.53086V14.5329ZM16.5985 19.4512C16.0205 19.4512 15.5134 19.3136 15.0771 19.0385C14.6436 18.7634 14.3046 18.3786 14.0601 17.884C13.8184 17.3894 13.6975 16.8114 13.6975 16.1501C13.6975 15.4832 13.8184 14.901 14.0601 14.4036C14.3046 13.9063 14.6436 13.52 15.0771 13.2449C15.5134 12.9698 16.0205 12.8323 16.5985 12.8323C17.1764 12.8323 17.6822 12.9698 18.1156 13.2449C18.5519 13.52 18.8909 13.9063 19.1326 14.4036C19.3772 14.901 19.4994 15.4832 19.4994 16.1501C19.4994 16.8114 19.3772 17.3894 19.1326 17.884C18.8909 18.3786 18.5519 18.7634 18.1156 19.0385C17.6822 19.3136 17.1764 19.4512 16.5985 19.4512ZM16.5985 18.5675C17.0375 18.5675 17.3987 18.455 17.6822 18.2299C17.9656 18.0048 18.1754 17.7089 18.3115 17.3421C18.4477 16.9753 18.5158 16.578 18.5158 16.1501C18.5158 15.7221 18.4477 15.3234 18.3115 14.9538C18.1754 14.5843 17.9656 14.2855 17.6822 14.0577C17.3987 13.8298 17.0375 13.7159 16.5985 13.7159C16.1594 13.7159 15.7982 13.8298 15.5148 14.0577C15.2313 14.2855 15.0215 14.5843 14.8854 14.9538C14.7492 15.3234 14.6812 15.7221 14.6812 16.1501C14.6812 16.578 14.7492 16.9753 14.8854 17.3421C15.0215 17.7089 15.2313 18.0048 15.5148 18.2299C15.7982 18.455 16.1594 18.5675 16.5985 18.5675ZM23.6018 19.4512C23.0239 19.4512 22.5168 19.3136 22.0805 19.0385C21.647 18.7634 21.308 18.3786 21.0635 17.884C20.8217 17.3894 20.7009 16.8114 20.7009 16.1501C20.7009 15.4832 20.8217 14.901 21.0635 14.4036C21.308 13.9063 21.647 13.52 22.0805 13.2449C22.5168 12.9698 23.0239 12.8323 23.6018 12.8323C24.1798 12.8323 24.6855 12.9698 25.119 13.2449C25.5553 13.52 25.8943 13.9063 26.136 14.4036C26.3805 14.901 26.5028 15.4832 26.5028 16.1501C26.5028 16.8114 26.3805 17.3894 26.136 17.884C25.8943 18.3786 25.5553 18.7634 25.119 19.0385C24.6855 19.3136 24.1798 19.4512 23.6018 19.4512ZM23.6018 18.5675C24.0409 18.5675 24.4021 18.455 24.6855 18.2299C24.969 18.0048 25.1788 17.7089 25.3149 17.3421C25.4511 16.9753 25.5191 16.578 25.5191 16.1501C25.5191 15.7221 25.4511 15.3234 25.3149 14.9538C25.1788 14.5843 24.969 14.2855 24.6855 14.0577C24.4021 13.8298 24.0409 13.7159 23.6018 13.7159C23.1628 13.7159 22.8016 13.8298 22.5181 14.0577C22.2347 14.2855 22.0249 14.5843 21.8888 14.9538C21.7526 15.3234 21.6845 15.7221 21.6845 16.1501C21.6845 16.578 21.7526 16.9753 21.8888 17.3421C22.0249 17.7089 22.2347 18.0048 22.5181 18.2299C22.8016 18.455 23.1628 18.5675 23.6018 18.5675ZM28.9213 16.9837L28.9047 15.7666H29.1047L31.9057 12.9156H33.1227L30.1384 15.9333H30.055L28.9213 16.9837ZM28.0043 19.3178V10.7816H28.988V19.3178H28.0043ZM32.0724 19.3178L29.5715 16.1501L30.2718 15.4665L33.3228 19.3178H32.0724ZM39.5738 19.4678C39.1681 19.4678 38.8 19.3914 38.4693 19.2386C38.1386 19.083 37.876 18.8593 37.6815 18.5675C37.487 18.273 37.3898 17.9173 37.3898 17.5005C37.3898 17.1337 37.462 16.8364 37.6065 16.6085C37.751 16.3779 37.9441 16.1973 38.1859 16.0667C38.4276 15.9361 38.6944 15.8388 38.9861 15.7749C39.2807 15.7082 39.5766 15.6554 39.8739 15.6165C40.263 15.5665 40.5783 15.529 40.8201 15.504C41.0646 15.4762 41.2424 15.4304 41.3536 15.3665C41.4675 15.3026 41.5245 15.1914 41.5245 15.033V14.9997C41.5245 14.5884 41.4119 14.2689 41.1869 14.041C40.9646 13.8132 40.627 13.6992 40.174 13.6992C39.7044 13.6992 39.3363 13.8021 39.0695 14.0077C38.8027 14.2133 38.6152 14.4328 38.5068 14.6662L37.5732 14.3328C37.7399 13.9438 37.9622 13.6409 38.2401 13.4241C38.5207 13.2046 38.8264 13.0518 39.157 12.9657C39.4905 12.8767 39.8184 12.8323 40.1407 12.8323C40.3463 12.8323 40.5825 12.8573 40.8493 12.9073C41.1188 12.9545 41.3786 13.0532 41.6287 13.2032C41.8815 13.3533 42.0913 13.5798 42.2581 13.8826C42.4248 14.1855 42.5081 14.5912 42.5081 15.0997V19.3178H41.5245V18.4508H41.4745C41.4078 18.5898 41.2966 18.7384 41.141 18.8968C40.9854 19.0552 40.7784 19.19 40.52 19.3011C40.2616 19.4123 39.9462 19.4678 39.5738 19.4678ZM39.7239 18.5842C40.1129 18.5842 40.4408 18.5078 40.7075 18.355C40.9771 18.2021 41.1799 18.0048 41.3161 17.7631C41.455 17.5213 41.5245 17.2671 41.5245 17.0003V16.1C41.4828 16.1501 41.3911 16.1959 41.2494 16.2376C41.1105 16.2765 40.9493 16.3112 40.7659 16.3418C40.5853 16.3696 40.4088 16.3946 40.2366 16.4168C40.0671 16.4363 39.9295 16.4529 39.8239 16.4668C39.5683 16.5002 39.3293 16.5544 39.107 16.6294C38.8875 16.7016 38.7097 16.8114 38.5735 16.9587C38.4401 17.1032 38.3734 17.3004 38.3734 17.5505C38.3734 17.8923 38.4999 18.1507 38.7527 18.3258C39.0084 18.4981 39.3321 18.5842 39.7239 18.5842ZM45.2872 15.4665V19.3178H44.3035V12.9156H45.2538V13.916H45.3372C45.4873 13.5909 45.7151 13.3297 46.0208 13.1324C46.3264 12.9323 46.721 12.8323 47.2045 12.8323C47.638 12.8323 48.0173 12.9212 48.3424 13.099C48.6675 13.2741 48.9203 13.5409 49.101 13.8993C49.2816 14.255 49.3719 14.7051 49.3719 15.2498V19.3178H48.3882V15.3164C48.3882 14.8135 48.2576 14.4217 47.9964 14.1411C47.7352 13.8576 47.3768 13.7159 46.9211 13.7159C46.6071 13.7159 46.3264 13.784 46.0791 13.9201C45.8346 14.0563 45.6415 14.255 45.4998 14.5162C45.3581 14.7774 45.2872 15.0941 45.2872 15.4665ZM56.3544 19.4678C55.9487 19.4678 55.5806 19.3914 55.2499 19.2386C54.9192 19.083 54.6566 18.8593 54.4621 18.5675C54.2676 18.273 54.1704 17.9173 54.1704 17.5005C54.1704 17.1337 54.2426 16.8364 54.3871 16.6085C54.5316 16.3779 54.7247 16.1973 54.9665 16.0667C55.2082 15.9361 55.475 15.8388 55.7667 15.7749C56.0613 15.7082 56.3572 15.6554 56.6545 15.6165C57.0435 15.5665 57.3589 15.529 57.6007 15.504C57.8452 15.4762 58.023 15.4304 58.1342 15.3665C58.2481 15.3026 58.3051 15.1914 58.3051 15.033V14.9997C58.3051 14.5884 58.1925 14.2689 57.9675 14.041C57.7452 13.8132 57.4076 13.6992 56.9546 13.6992C56.485 13.6992 56.1168 13.8021 55.8501 14.0077C55.5833 14.2133 55.3958 14.4328 55.2874 14.6662L54.3538 14.3328C54.5205 13.9438 54.7428 13.6409 55.0206 13.4241C55.3013 13.2046 55.607 13.0518 55.9376 12.9657C56.2711 12.8767 56.599 12.8323 56.9213 12.8323C57.1269 12.8323 57.3631 12.8573 57.6299 12.9073C57.8994 12.9545 58.1592 13.0532 58.4093 13.2032C58.6621 13.3533 58.8719 13.5798 59.0387 13.8826C59.2054 14.1855 59.2887 14.5912 59.2887 15.0997V19.3178H58.3051V18.4508H58.2551C58.1884 18.5898 58.0772 18.7384 57.9216 18.8968C57.766 19.0552 57.559 19.19 57.3006 19.3011C57.0422 19.4123 56.7268 19.4678 56.3544 19.4678ZM56.5045 18.5842C56.8935 18.5842 57.2214 18.5078 57.4881 18.355C57.7577 18.2021 57.9605 18.0048 58.0967 17.7631C58.2356 17.5213 58.3051 17.2671 58.3051 17.0003V16.1C58.2634 16.1501 58.1717 16.1959 58.03 16.2376C57.891 16.2765 57.7299 16.3112 57.5465 16.3418C57.3659 16.3696 57.1894 16.3946 57.0171 16.4168C56.8476 16.4363 56.7101 16.4529 56.6045 16.4668C56.3489 16.5002 56.1099 16.5544 55.8876 16.6294C55.6681 16.7016 55.4902 16.8114 55.3541 16.9587C55.2207 17.1032 55.154 17.3004 55.154 17.5505C55.154 17.8923 55.2805 18.1507 55.5333 18.3258C55.789 18.4981 56.1127 18.5842 56.5045 18.5842ZM61.0841 21.7186V12.9156H62.0344V13.9327H62.1511C62.2234 13.8215 62.3234 13.6798 62.4512 13.5075C62.5818 13.3325 62.768 13.1768 63.0098 13.0407C63.2543 12.9018 63.585 12.8323 64.0018 12.8323C64.5408 12.8323 65.016 12.9671 65.4272 13.2366C65.8385 13.5061 66.1594 13.8882 66.3901 14.3828C66.6207 14.8774 66.736 15.4609 66.736 16.1334C66.736 16.8114 66.6207 17.3991 66.3901 17.8965C66.1594 18.3911 65.8399 18.7745 65.4314 19.0469C65.0229 19.3164 64.5519 19.4512 64.0184 19.4512C63.6072 19.4512 63.2779 19.3831 63.0306 19.2469C62.7833 19.108 62.593 18.951 62.4596 18.7759C62.3262 18.5981 62.2234 18.4508 62.1511 18.3341H62.0678V21.7186H61.0841ZM62.0511 16.1167C62.0511 16.6002 62.122 17.0267 62.2637 17.3963C62.4054 17.7631 62.6124 18.0507 62.8847 18.2591C63.157 18.4647 63.4905 18.5675 63.8851 18.5675C64.2963 18.5675 64.6395 18.4592 64.9146 18.2424C65.1924 18.0229 65.4008 17.7284 65.5398 17.3588C65.6815 16.9864 65.7523 16.5724 65.7523 16.1167C65.7523 15.6666 65.6829 15.2609 65.5439 14.8996C65.4078 14.5356 65.2008 14.248 64.9229 14.0369C64.6478 13.8229 64.3019 13.7159 63.8851 13.7159C63.4849 13.7159 63.1487 13.8173 62.8764 14.0202C62.6041 14.2202 62.3985 14.5009 62.2595 14.8621C62.1206 15.2206 62.0511 15.6388 62.0511 16.1167ZM68.2365 21.7186V12.9156H69.1868V13.9327H69.3035C69.3758 13.8215 69.4758 13.6798 69.6036 13.5075C69.7342 13.3325 69.9204 13.1768 70.1622 13.0407C70.4067 12.9018 70.7373 12.8323 71.1542 12.8323C71.6932 12.8323 72.1684 12.9671 72.5796 13.2366C72.9909 13.5061 73.3118 13.8882 73.5424 14.3828C73.7731 14.8774 73.8884 15.4609 73.8884 16.1334C73.8884 16.8114 73.7731 17.3991 73.5424 17.8965C73.3118 18.3911 72.9923 18.7745 72.5838 19.0469C72.1753 19.3164 71.7043 19.4512 71.1708 19.4512C70.7596 19.4512 70.4303 19.3831 70.183 19.2469C69.9357 19.108 69.7453 18.951 69.612 18.7759C69.4786 18.5981 69.3758 18.4508 69.3035 18.3341H69.2202V21.7186H68.2365ZM69.2035 16.1167C69.2035 16.6002 69.2744 17.0267 69.4161 17.3963C69.5578 17.7631 69.7648 18.0507 70.0371 18.2591C70.3094 18.4647 70.6429 18.5675 71.0374 18.5675C71.4487 18.5675 71.7919 18.4592 72.067 18.2424C72.3448 18.0229 72.5532 17.7284 72.6922 17.3588C72.8339 16.9864 72.9047 16.5724 72.9047 16.1167C72.9047 15.6666 72.8353 15.2609 72.6963 14.8996C72.5602 14.5356 72.3532 14.248 72.0753 14.0369C71.8002 13.8229 71.4543 13.7159 71.0374 13.7159C70.6373 13.7159 70.3011 13.8173 70.0288 14.0202C69.7565 14.2202 69.5508 14.5009 69.4119 14.8621C69.273 15.2206 69.2035 15.6388 69.2035 16.1167ZM77.9898 19.4512C77.4118 19.4512 76.9047 19.3136 76.4684 19.0385C76.0349 18.7634 75.6959 18.3786 75.4514 17.884C75.2097 17.3894 75.0888 16.8114 75.0888 16.1501C75.0888 15.4832 75.2097 14.901 75.4514 14.4036C75.6959 13.9063 76.0349 13.52 76.4684 13.2449C76.9047 12.9698 77.4118 12.8323 77.9898 12.8323C78.5677 12.8323 79.0735 12.9698 79.5069 13.2449C79.9432 13.52 80.2822 13.9063 80.5239 14.4036C80.7685 14.901 80.8907 15.4832 80.8907 16.1501C80.8907 16.8114 80.7685 17.3894 80.5239 17.884C80.2822 18.3786 79.9432 18.7634 79.5069 19.0385C79.0735 19.3136 78.5677 19.4512 77.9898 19.4512ZM77.9898 18.5675C78.4288 18.5675 78.79 18.455 79.0735 18.2299C79.3569 18.0048 79.5667 17.7089 79.7028 17.3421C79.839 16.9753 79.9071 16.578 79.9071 16.1501C79.9071 15.7221 79.839 15.3234 79.7028 14.9538C79.5667 14.5843 79.3569 14.2855 79.0735 14.0577C78.79 13.8298 78.4288 13.7159 77.9898 13.7159C77.5507 13.7159 77.1895 13.8298 76.9061 14.0577C76.6226 14.2855 76.4128 14.5843 76.2767 14.9538C76.1405 15.3234 76.0725 15.7221 76.0725 16.1501C76.0725 16.578 76.1405 16.9753 76.2767 17.3421C76.4128 17.7089 76.6226 18.0048 76.9061 18.2299C77.1895 18.455 77.5507 18.5675 77.9898 18.5675ZM82.3923 19.3178V12.9156H83.3759V19.3178H82.3923ZM82.8924 11.8486C82.7007 11.8486 82.5354 11.7833 82.3964 11.6527C82.2603 11.5221 82.1922 11.3651 82.1922 11.1817C82.1922 10.9983 82.2603 10.8413 82.3964 10.7107C82.5354 10.5801 82.7007 10.5148 82.8924 10.5148C83.0842 10.5148 83.2481 10.5801 83.3843 10.7107C83.5232 10.8413 83.5927 10.9983 83.5927 11.1817C83.5927 11.3651 83.5232 11.5221 83.3843 11.6527C83.2481 11.7833 83.0842 11.8486 82.8924 11.8486ZM86.1612 15.4665V19.3178H85.1776V12.9156H86.1279V13.916H86.2113C86.3613 13.5909 86.5892 13.3297 86.8948 13.1324C87.2005 12.9323 87.595 12.8323 88.0785 12.8323C88.512 12.8323 88.8913 12.9212 89.2164 13.099C89.5415 13.2741 89.7944 13.5409 89.975 13.8993C90.1556 14.255 90.2459 14.7051 90.2459 15.2498V19.3178H89.2623V15.3164C89.2623 14.8135 89.1317 14.4217 88.8705 14.1411C88.6093 13.8576 88.2508 13.7159 87.7951 13.7159C87.4811 13.7159 87.2005 13.784 86.9532 13.9201C86.7086 14.0563 86.5155 14.255 86.3738 14.5162C86.2321 14.7774 86.1612 15.0941 86.1612 15.4665ZM94.8277 12.9156V13.7493H91.5099V12.9156H94.8277ZM92.4769 11.3818H93.4606V17.4838C93.4606 17.7617 93.5008 17.9701 93.5814 18.109C93.6648 18.2452 93.7704 18.3369 93.8982 18.3841C94.0288 18.4286 94.1663 18.4508 94.3108 18.4508C94.4192 18.4508 94.5081 18.4453 94.5776 18.4342C94.6471 18.4203 94.7026 18.4091 94.7443 18.4008L94.9444 19.2844C94.8777 19.3094 94.7846 19.3345 94.6651 19.3595C94.5456 19.3872 94.3942 19.4011 94.2108 19.4011C93.9329 19.4011 93.6606 19.3414 93.3939 19.2219C93.1299 19.1024 92.9104 18.9204 92.7353 18.6759C92.563 18.4314 92.4769 18.1229 92.4769 17.7506V11.3818ZM96.3073 19.3178V12.9156H97.2576V13.916H97.341C97.4744 13.5742 97.6897 13.3088 97.9871 13.1199C98.2844 12.9281 98.6414 12.8323 99.0582 12.8323C99.4806 12.8323 99.8321 12.9281 100.113 13.1199C100.396 13.3088 100.617 13.5742 100.775 13.916H100.842C101.006 13.5853 101.252 13.3227 101.58 13.1282C101.908 12.9309 102.301 12.8323 102.759 12.8323C103.332 12.8323 103.8 13.0115 104.164 13.37C104.528 13.7256 104.71 14.28 104.71 15.033V19.3178H103.726V15.033C103.726 14.5606 103.597 14.223 103.339 14.0202C103.08 13.8173 102.776 13.7159 102.426 13.7159C101.976 13.7159 101.627 13.8521 101.38 14.1244C101.133 14.3939 101.009 14.7357 101.009 15.1497V19.3178H100.009V14.933C100.009 14.569 99.8905 14.2758 99.6543 14.0535C99.4181 13.8284 99.1138 13.7159 98.7415 13.7159C98.4858 13.7159 98.2469 13.784 98.0246 13.9201C97.805 14.0563 97.6272 14.2453 97.4911 14.487C97.3577 14.726 97.291 15.0025 97.291 15.3164V19.3178H96.3073ZM109.193 19.4512C108.576 19.4512 108.044 19.315 107.597 19.0427C107.152 18.7676 106.809 18.3841 106.567 17.8923C106.328 17.3977 106.209 16.8225 106.209 16.1667C106.209 15.511 106.328 14.933 106.567 14.4328C106.809 13.9299 107.145 13.5381 107.576 13.2574C108.009 12.974 108.515 12.8323 109.093 12.8323C109.426 12.8323 109.756 12.8879 110.081 12.999C110.406 13.1102 110.702 13.2908 110.968 13.5409C111.235 13.7882 111.448 14.116 111.606 14.5245C111.765 14.933 111.844 15.4359 111.844 16.0334V16.4502H106.909V15.5999H110.843C110.843 15.2386 110.771 14.9163 110.627 14.6329C110.485 14.3495 110.282 14.1258 110.018 13.9618C109.757 13.7979 109.449 13.7159 109.093 13.7159C108.701 13.7159 108.362 13.8132 108.076 14.0077C107.792 14.1994 107.574 14.4495 107.421 14.7579C107.269 15.0664 107.192 15.397 107.192 15.7499V16.3168C107.192 16.8003 107.276 17.2101 107.442 17.5464C107.612 17.8798 107.847 18.1341 108.147 18.3091C108.447 18.4814 108.796 18.5675 109.193 18.5675C109.451 18.5675 109.685 18.5314 109.893 18.4592C110.104 18.3841 110.286 18.273 110.439 18.1257C110.592 17.9757 110.71 17.7895 110.793 17.5672L111.744 17.834C111.644 18.1563 111.476 18.4397 111.239 18.6842C111.003 18.926 110.711 19.1149 110.364 19.2511C110.017 19.3845 109.626 19.4512 109.193 19.4512ZM114.324 15.4665V19.3178H113.34V12.9156H114.29V13.916H114.374C114.524 13.5909 114.752 13.3297 115.057 13.1324C115.363 12.9323 115.758 12.8323 116.241 12.8323C116.675 12.8323 117.054 12.9212 117.379 13.099C117.704 13.2741 117.957 13.5409 118.138 13.8993C118.318 14.255 118.408 14.7051 118.408 15.2498V19.3178H117.425V15.3164C117.425 14.8135 117.294 14.4217 117.033 14.1411C116.772 13.8576 116.413 13.7159 115.958 13.7159C115.644 13.7159 115.363 13.784 115.116 13.9201C114.871 14.0563 114.678 14.255 114.536 14.5162C114.395 14.7774 114.324 15.0941 114.324 15.4665ZM122.99 12.9156V13.7493H119.672V12.9156H122.99ZM120.639 11.3818H121.623V17.4838C121.623 17.7617 121.663 17.9701 121.744 18.109C121.827 18.2452 121.933 18.3369 122.061 18.3841C122.191 18.4286 122.329 18.4508 122.473 18.4508C122.582 18.4508 122.671 18.4453 122.74 18.4342C122.81 18.4203 122.865 18.4091 122.907 18.4008L123.107 19.2844C123.04 19.3094 122.947 19.3345 122.828 19.3595C122.708 19.3872 122.557 19.4011 122.373 19.4011C122.095 19.4011 121.823 19.3414 121.556 19.2219C121.292 19.1024 121.073 18.9204 120.898 18.6759C120.726 18.4314 120.639 18.1229 120.639 17.7506V11.3818Z" fill="black"/>
<defs>
<linearGradient id="paint0_linear_6_2050" x1="0.79541" y1="15.3178" x2="115.892" y2="15.3178" gradientUnits="userSpaceOnUse">
<stop/>
<stop offset="0.0001" stop-color="#DDD3EF" stop-opacity="0.55"/>
<stop offset="0.4375" stop-color="#FDD9FF"/>
<stop offset="1" stop-color="#C1E7FF"/>
</linearGradient>
</defs>
</svg>
