<svg width="130" height="30" viewBox="0 0 130 30" fill="none" xmlns="http://www.w3.org/2000/svg">
<rect x="1.11254" y="1.0208" width="127.591" height="28.4221" rx="2.60828" fill="white"/>
<rect x="1.11254" y="1.0208" width="127.591" height="28.4221" rx="2.60828" stroke="url(#paint0_linear_6_2060)" stroke-width="0.745222"/>
<path d="M6.4417 19.2319V10.6957H9.42603C10.0207 10.6957 10.5111 10.7985 10.8974 11.0041C11.2836 11.207 11.5712 11.4807 11.7601 11.8252C11.9491 12.167 12.0436 12.5463 12.0436 12.9631C12.0436 13.3299 11.9783 13.6328 11.8477 13.8718C11.7198 14.1107 11.5503 14.2997 11.3392 14.4386C11.1308 14.5775 10.9043 14.6804 10.6598 14.747V14.8304C10.921 14.8471 11.1836 14.9388 11.4475 15.1055C11.7115 15.2722 11.9324 15.5112 12.1103 15.8224C12.2881 16.1336 12.377 16.5143 12.377 16.9644C12.377 17.3924 12.2798 17.7772 12.0852 18.119C11.8907 18.4608 11.5837 18.7317 11.1641 18.9318C10.7445 19.1318 10.1985 19.2319 9.52606 19.2319H6.4417ZM7.47538 18.3149H9.52606C10.2013 18.3149 10.6806 18.1843 10.964 17.9231C11.2502 17.6591 11.3933 17.3396 11.3933 16.9644C11.3933 16.6755 11.3197 16.4087 11.1724 16.1642C11.0252 15.9169 10.8154 15.7196 10.5431 15.5723C10.2708 15.4223 9.94842 15.3472 9.57608 15.3472H7.47538V18.3149ZM7.47538 14.4469H9.39268C9.7039 14.4469 9.98455 14.3858 10.2346 14.2635C10.4875 14.1413 10.6876 13.969 10.8348 13.7467C10.9849 13.5244 11.0599 13.2632 11.0599 12.9631C11.0599 12.588 10.9293 12.2698 10.6681 12.0086C10.4069 11.7447 9.99288 11.6127 9.42603 11.6127H7.47538V14.4469ZM16.543 19.3653C15.965 19.3653 15.4579 19.2277 15.0216 18.9526C14.5882 18.6775 14.2492 18.2927 14.0046 17.7981C13.7629 17.3035 13.642 16.7255 13.642 16.0641C13.642 15.3973 13.7629 14.8151 14.0046 14.3177C14.2492 13.8203 14.5882 13.4341 15.0216 13.159C15.4579 12.8839 15.965 12.7464 16.543 12.7464C17.121 12.7464 17.6267 12.8839 18.0602 13.159C18.4964 13.4341 18.8354 13.8203 19.0772 14.3177C19.3217 14.8151 19.4439 15.3973 19.4439 16.0641C19.4439 16.7255 19.3217 17.3035 19.0772 17.7981C18.8354 18.2927 18.4964 18.6775 18.0602 18.9526C17.6267 19.2277 17.121 19.3653 16.543 19.3653ZM16.543 18.4816C16.982 18.4816 17.3432 18.3691 17.6267 18.144C17.9101 17.9189 18.1199 17.623 18.2561 17.2562C18.3922 16.8894 18.4603 16.4921 18.4603 16.0641C18.4603 15.6362 18.3922 15.2375 18.2561 14.8679C18.1199 14.4983 17.9101 14.1996 17.6267 13.9718C17.3432 13.7439 16.982 13.63 16.543 13.63C16.1039 13.63 15.7427 13.7439 15.4593 13.9718C15.1759 14.1996 14.9661 14.4983 14.8299 14.8679C14.6938 15.2375 14.6257 15.6362 14.6257 16.0641C14.6257 16.4921 14.6938 16.8894 14.8299 17.2562C14.9661 17.623 15.1759 17.9189 15.4593 18.144C15.7427 18.3691 16.1039 18.4816 16.543 18.4816ZM23.5464 19.3653C22.9684 19.3653 22.4613 19.2277 22.025 18.9526C21.5915 18.6775 21.2525 18.2927 21.008 17.7981C20.7663 17.3035 20.6454 16.7255 20.6454 16.0641C20.6454 15.3973 20.7663 14.8151 21.008 14.3177C21.2525 13.8203 21.5915 13.4341 22.025 13.159C22.4613 12.8839 22.9684 12.7464 23.5464 12.7464C24.1243 12.7464 24.6301 12.8839 25.0635 13.159C25.4998 13.4341 25.8388 13.8203 26.0805 14.3177C26.3251 14.8151 26.4473 15.3973 26.4473 16.0641C26.4473 16.7255 26.3251 17.3035 26.0805 17.7981C25.8388 18.2927 25.4998 18.6775 25.0635 18.9526C24.6301 19.2277 24.1243 19.3653 23.5464 19.3653ZM23.5464 18.4816C23.9854 18.4816 24.3466 18.3691 24.6301 18.144C24.9135 17.9189 25.1233 17.623 25.2594 17.2562C25.3956 16.8894 25.4637 16.4921 25.4637 16.0641C25.4637 15.6362 25.3956 15.2375 25.2594 14.8679C25.1233 14.4983 24.9135 14.1996 24.6301 13.9718C24.3466 13.7439 23.9854 13.63 23.5464 13.63C23.1073 13.63 22.7461 13.7439 22.4627 13.9718C22.1792 14.1996 21.9694 14.4983 21.8333 14.8679C21.6971 15.2375 21.6291 15.6362 21.6291 16.0641C21.6291 16.4921 21.6971 16.8894 21.8333 17.2562C21.9694 17.623 22.1792 17.9189 22.4627 18.144C22.7461 18.3691 23.1073 18.4816 23.5464 18.4816ZM28.8658 16.8978L28.8492 15.6807H29.0492L31.8502 12.8297H33.0672L30.0829 15.8474H29.9996L28.8658 16.8978ZM27.9489 19.2319V10.6957H28.9325V19.2319H27.9489ZM32.0169 19.2319L29.5161 16.0641L30.2163 15.3806L33.2673 19.2319H32.0169ZM39.5184 19.3819C39.1127 19.3819 38.7445 19.3055 38.4138 19.1527C38.0831 18.9971 37.8206 18.7734 37.6261 18.4816C37.4315 18.1871 37.3343 17.8314 37.3343 17.4146C37.3343 17.0478 37.4065 16.7505 37.551 16.5226C37.6955 16.292 37.8886 16.1114 38.1304 15.9808C38.3721 15.8502 38.6389 15.7529 38.9307 15.689C39.2252 15.6223 39.5211 15.5695 39.8185 15.5306C40.2075 15.4806 40.5229 15.4431 40.7646 15.4181C41.0091 15.3903 41.187 15.3445 41.2981 15.2806C41.412 15.2166 41.469 15.1055 41.469 14.9471V14.9138C41.469 14.5025 41.3565 14.183 41.1314 13.9551C40.9091 13.7273 40.5715 13.6133 40.1186 13.6133C39.6489 13.6133 39.2808 13.7161 39.014 13.9218C38.7473 14.1274 38.5597 14.3469 38.4513 14.5803L37.5177 14.2469C37.6844 13.8579 37.9067 13.555 38.1846 13.3382C38.4652 13.1187 38.7709 12.9659 39.1015 12.8798C39.435 12.7908 39.7629 12.7464 40.0852 12.7464C40.2908 12.7464 40.527 12.7714 40.7938 12.8214C41.0633 12.8686 41.3231 12.9673 41.5732 13.1173C41.8261 13.2674 42.0359 13.4938 42.2026 13.7967C42.3693 14.0996 42.4527 14.5053 42.4527 15.0138V19.2319H41.469V18.3649H41.419C41.3523 18.5039 41.2411 18.6525 41.0855 18.8109C40.9299 18.9693 40.7229 19.1041 40.4645 19.2152C40.2061 19.3263 39.8907 19.3819 39.5184 19.3819ZM39.6684 18.4983C40.0574 18.4983 40.3853 18.4219 40.6521 18.2691C40.9216 18.1162 41.1244 17.9189 41.2606 17.6772C41.3995 17.4354 41.469 17.1812 41.469 16.9144V16.0141C41.4273 16.0641 41.3356 16.11 41.1939 16.1517C41.055 16.1906 40.8938 16.2253 40.7104 16.2559C40.5298 16.2837 40.3534 16.3087 40.1811 16.3309C40.0116 16.3504 39.874 16.367 39.7684 16.3809C39.5128 16.4143 39.2738 16.4685 39.0515 16.5435C38.832 16.6157 38.6542 16.7255 38.518 16.8728C38.3846 17.0172 38.318 17.2145 38.318 17.4646C38.318 17.8064 38.4444 18.0648 38.6972 18.2399C38.9529 18.4122 39.2766 18.4983 39.6684 18.4983ZM45.2317 15.3806V19.2319H44.2481V12.8297H45.1984V13.8301H45.2817C45.4318 13.505 45.6596 13.2438 45.9653 13.0465C46.2709 12.8464 46.6655 12.7464 47.149 12.7464C47.5825 12.7464 47.9618 12.8353 48.2869 13.0131C48.612 13.1882 48.8649 13.4549 49.0455 13.8134C49.2261 14.1691 49.3164 14.6192 49.3164 15.1638V19.2319H48.3327V15.2305C48.3327 14.7276 48.2021 14.3358 47.9409 14.0551C47.6798 13.7717 47.3213 13.63 46.8656 13.63C46.5516 13.63 46.2709 13.6981 46.0236 13.8342C45.7791 13.9704 45.586 14.1691 45.4443 14.4303C45.3026 14.6915 45.2317 15.0082 45.2317 15.3806ZM56.2989 19.3819C55.8933 19.3819 55.5251 19.3055 55.1944 19.1527C54.8637 18.9971 54.6012 18.7734 54.4066 18.4816C54.2121 18.1871 54.1149 17.8314 54.1149 17.4146C54.1149 17.0478 54.1871 16.7505 54.3316 16.5226C54.4761 16.292 54.6692 16.1114 54.911 15.9808C55.1527 15.8502 55.4195 15.7529 55.7112 15.689C56.0058 15.6223 56.3017 15.5695 56.599 15.5306C56.9881 15.4806 57.3034 15.4431 57.5452 15.4181C57.7897 15.3903 57.9676 15.3445 58.0787 15.2806C58.1926 15.2166 58.2496 15.1055 58.2496 14.9471V14.9138C58.2496 14.5025 58.1371 14.183 57.912 13.9551C57.6897 13.7273 57.3521 13.6133 56.8991 13.6133C56.4295 13.6133 56.0614 13.7161 55.7946 13.9218C55.5279 14.1274 55.3403 14.3469 55.2319 14.5803L54.2983 14.2469C54.465 13.8579 54.6873 13.555 54.9652 13.3382C55.2458 13.1187 55.5515 12.9659 55.8821 12.8798C56.2156 12.7908 56.5435 12.7464 56.8658 12.7464C57.0714 12.7464 57.3076 12.7714 57.5744 12.8214C57.8439 12.8686 58.1037 12.9673 58.3538 13.1173C58.6067 13.2674 58.8165 13.4938 58.9832 13.7967C59.1499 14.0996 59.2333 14.5053 59.2333 15.0138V19.2319H58.2496V18.3649H58.1996C58.1329 18.5039 58.0217 18.6525 57.8661 18.8109C57.7105 18.9693 57.5035 19.1041 57.2451 19.2152C56.9867 19.3263 56.6713 19.3819 56.2989 19.3819ZM56.449 18.4983C56.838 18.4983 57.1659 18.4219 57.4327 18.2691C57.7022 18.1162 57.905 17.9189 58.0412 17.6772C58.1801 17.4354 58.2496 17.1812 58.2496 16.9144V16.0141C58.2079 16.0641 58.1162 16.11 57.9745 16.1517C57.8356 16.1906 57.6744 16.2253 57.491 16.2559C57.3104 16.2837 57.1339 16.3087 56.9617 16.3309C56.7922 16.3504 56.6546 16.367 56.549 16.3809C56.2934 16.4143 56.0544 16.4685 55.8321 16.5435C55.6126 16.6157 55.4348 16.7255 55.2986 16.8728C55.1652 17.0172 55.0985 17.2145 55.0985 17.4646C55.0985 17.8064 55.225 18.0648 55.4778 18.2399C55.7335 18.4122 56.0572 18.4983 56.449 18.4983ZM61.0286 21.6327V12.8297H61.979V13.8467H62.0957C62.1679 13.7356 62.2679 13.5939 62.3958 13.4216C62.5264 13.2465 62.7125 13.0909 62.9543 12.9548C63.1988 12.8158 63.5295 12.7464 63.9463 12.7464C64.4854 12.7464 64.9605 12.8811 65.3718 13.1507C65.783 13.4202 66.1039 13.8023 66.3346 14.2969C66.5652 14.7915 66.6805 15.375 66.6805 16.0475C66.6805 16.7255 66.5652 17.3132 66.3346 17.8106C66.1039 18.3052 65.7844 18.6886 65.3759 18.9609C64.9675 19.2305 64.4965 19.3653 63.963 19.3653C63.5517 19.3653 63.2224 19.2972 62.9751 19.161C62.7278 19.0221 62.5375 18.8651 62.4041 18.69C62.2707 18.5122 62.1679 18.3649 62.0957 18.2482H62.0123V21.6327H61.0286ZM61.9956 16.0308C61.9956 16.5143 62.0665 16.9408 62.2082 17.3104C62.3499 17.6772 62.5569 17.9648 62.8292 18.1732C63.1016 18.3788 63.435 18.4816 63.8296 18.4816C64.2408 18.4816 64.584 18.3733 64.8591 18.1565C65.137 17.937 65.3454 17.6425 65.4843 17.2729C65.626 16.9005 65.6969 16.4865 65.6969 16.0308C65.6969 15.5807 65.6274 15.175 65.4885 14.8137C65.3523 14.4497 65.1453 14.1621 64.8674 13.9509C64.5923 13.737 64.2464 13.63 63.8296 13.63C63.4294 13.63 63.0932 13.7314 62.8209 13.9343C62.5486 14.1343 62.343 14.415 62.204 14.7762C62.0651 15.1347 61.9956 15.5529 61.9956 16.0308ZM68.181 21.6327V12.8297H69.1313V13.8467H69.2481C69.3203 13.7356 69.4203 13.5939 69.5482 13.4216C69.6788 13.2465 69.8649 13.0909 70.1067 12.9548C70.3512 12.8158 70.6819 12.7464 71.0987 12.7464C71.6377 12.7464 72.1129 12.8811 72.5241 13.1507C72.9354 13.4202 73.2563 13.8023 73.487 14.2969C73.7176 14.7915 73.8329 15.375 73.8329 16.0475C73.8329 16.7255 73.7176 17.3132 73.487 17.8106C73.2563 18.3052 72.9368 18.6886 72.5283 18.9609C72.1198 19.2305 71.6489 19.3653 71.1153 19.3653C70.7041 19.3653 70.3748 19.2972 70.1275 19.161C69.8802 19.0221 69.6899 18.8651 69.5565 18.69C69.4231 18.5122 69.3203 18.3649 69.2481 18.2482H69.1647V21.6327H68.181ZM69.148 16.0308C69.148 16.5143 69.2189 16.9408 69.3606 17.3104C69.5023 17.6772 69.7093 17.9648 69.9816 18.1732C70.2539 18.3788 70.5874 18.4816 70.982 18.4816C71.3932 18.4816 71.7364 18.3733 72.0115 18.1565C72.2893 17.937 72.4977 17.6425 72.6367 17.2729C72.7784 16.9005 72.8493 16.4865 72.8493 16.0308C72.8493 15.5807 72.7798 15.175 72.6409 14.8137C72.5047 14.4497 72.2977 14.1621 72.0198 13.9509C71.7447 13.737 71.3988 13.63 70.982 13.63C70.5818 13.63 70.2456 13.7314 69.9733 13.9343C69.701 14.1343 69.4954 14.415 69.3564 14.7762C69.2175 15.1347 69.148 15.5529 69.148 16.0308ZM77.9343 19.3653C77.3563 19.3653 76.8492 19.2277 76.4129 18.9526C75.9795 18.6775 75.6405 18.2927 75.3959 17.7981C75.1542 17.3035 75.0333 16.7255 75.0333 16.0641C75.0333 15.3973 75.1542 14.8151 75.3959 14.3177C75.6405 13.8203 75.9795 13.4341 76.4129 13.159C76.8492 12.8839 77.3563 12.7464 77.9343 12.7464C78.5123 12.7464 79.018 12.8839 79.4515 13.159C79.8877 13.4341 80.2267 13.8203 80.4685 14.3177C80.713 14.8151 80.8352 15.3973 80.8352 16.0641C80.8352 16.7255 80.713 17.3035 80.4685 17.7981C80.2267 18.2927 79.8877 18.6775 79.4515 18.9526C79.018 19.2277 78.5123 19.3653 77.9343 19.3653ZM77.9343 18.4816C78.3733 18.4816 78.7345 18.3691 79.018 18.144C79.3014 17.9189 79.5112 17.623 79.6474 17.2562C79.7835 16.8894 79.8516 16.4921 79.8516 16.0641C79.8516 15.6362 79.7835 15.2375 79.6474 14.8679C79.5112 14.4983 79.3014 14.1996 79.018 13.9718C78.7345 13.7439 78.3733 13.63 77.9343 13.63C77.4952 13.63 77.134 13.7439 76.8506 13.9718C76.5672 14.1996 76.3574 14.4983 76.2212 14.8679C76.0851 15.2375 76.017 15.6362 76.017 16.0641C76.017 16.4921 76.0851 16.8894 76.2212 17.2562C76.3574 17.623 76.5672 17.9189 76.8506 18.144C77.134 18.3691 77.4952 18.4816 77.9343 18.4816ZM82.3368 19.2319V12.8297H83.3205V19.2319H82.3368ZM82.837 11.7627C82.6452 11.7627 82.4799 11.6974 82.341 11.5668C82.2048 11.4362 82.1367 11.2792 82.1367 11.0958C82.1367 10.9124 82.2048 10.7554 82.341 10.6248C82.4799 10.4942 82.6452 10.4289 82.837 10.4289C83.0287 10.4289 83.1926 10.4942 83.3288 10.6248C83.4677 10.7554 83.5372 10.9124 83.5372 11.0958C83.5372 11.2792 83.4677 11.4362 83.3288 11.5668C83.1926 11.6974 83.0287 11.7627 82.837 11.7627ZM86.1058 15.3806V19.2319H85.1221V12.8297H86.0724V13.8301H86.1558C86.3058 13.505 86.5337 13.2438 86.8393 13.0465C87.145 12.8464 87.5396 12.7464 88.0231 12.7464C88.4565 12.7464 88.8358 12.8353 89.1609 13.0131C89.486 13.1882 89.7389 13.4549 89.9195 13.8134C90.1001 14.1691 90.1905 14.6192 90.1905 15.1638V19.2319H89.2068V15.2305C89.2068 14.7276 89.0762 14.3358 88.815 14.0551C88.5538 13.7717 88.1953 13.63 87.7396 13.63C87.4256 13.63 87.145 13.6981 86.8977 13.8342C86.6532 13.9704 86.46 14.1691 86.3183 14.4303C86.1766 14.6915 86.1058 15.0082 86.1058 15.3806ZM94.7722 12.8297V13.6633H91.4544V12.8297H94.7722ZM92.4214 11.2959H93.4051V17.3979C93.4051 17.6758 93.4454 17.8842 93.5259 18.0231C93.6093 18.1593 93.7149 18.251 93.8427 18.2982C93.9733 18.3427 94.1109 18.3649 94.2554 18.3649C94.3637 18.3649 94.4526 18.3594 94.5221 18.3482C94.5916 18.3344 94.6472 18.3232 94.6888 18.3149L94.8889 19.1985C94.8222 19.2235 94.7291 19.2485 94.6096 19.2736C94.4902 19.3013 94.3387 19.3152 94.1553 19.3152C93.8775 19.3152 93.6051 19.2555 93.3384 19.136C93.0744 19.0165 92.8549 18.8345 92.6798 18.59C92.5075 18.3455 92.4214 18.037 92.4214 17.6647V11.2959ZM96.2518 19.2319V12.8297H97.2022V13.8301H97.2855C97.4189 13.4883 97.6343 13.2229 97.9316 13.034C98.2289 12.8422 98.586 12.7464 99.0028 12.7464C99.4251 12.7464 99.7766 12.8422 100.057 13.034C100.341 13.2229 100.562 13.4883 100.72 13.8301H100.787C100.951 13.4994 101.197 13.2368 101.524 13.0423C101.852 12.845 102.246 12.7464 102.704 12.7464C103.276 12.7464 103.745 12.9256 104.109 13.2841C104.473 13.6397 104.655 14.1941 104.655 14.9471V19.2319H103.671V14.9471C103.671 14.4747 103.542 14.1371 103.283 13.9343C103.025 13.7314 102.721 13.63 102.371 13.63C101.92 13.63 101.572 13.7662 101.324 14.0385C101.077 14.308 100.953 14.6498 100.953 15.0638V19.2319H99.9531V14.8471C99.9531 14.4831 99.835 14.1899 99.5988 13.9676C99.3626 13.7425 99.0583 13.63 98.686 13.63C98.4304 13.63 98.1914 13.6981 97.9691 13.8342C97.7496 13.9704 97.5717 14.1593 97.4356 14.4011C97.3022 14.6401 97.2355 14.9165 97.2355 15.2305V19.2319H96.2518ZM109.137 19.3653C108.521 19.3653 107.988 19.2291 107.541 18.9568C107.096 18.6817 106.753 18.2982 106.512 17.8064C106.273 17.3118 106.153 16.7366 106.153 16.0808C106.153 15.425 106.273 14.8471 106.512 14.3469C106.753 13.844 107.089 13.4522 107.52 13.1715C107.954 12.8881 108.459 12.7464 109.037 12.7464C109.371 12.7464 109.7 12.802 110.025 12.9131C110.35 13.0242 110.646 13.2049 110.913 13.4549C111.18 13.7023 111.392 14.0301 111.551 14.4386C111.709 14.8471 111.788 15.35 111.788 15.9474V16.3642H106.853V15.514H110.788C110.788 15.1527 110.716 14.8304 110.571 14.547C110.429 14.2635 110.227 14.0399 109.963 13.8759C109.701 13.712 109.393 13.63 109.037 13.63C108.646 13.63 108.307 13.7273 108.02 13.9218C107.737 14.1135 107.519 14.3636 107.366 14.672C107.213 14.9805 107.137 15.3111 107.137 15.664V16.2309C107.137 16.7144 107.22 17.1242 107.387 17.4604C107.556 17.7939 107.791 18.0481 108.091 18.2232C108.391 18.3955 108.74 18.4816 109.137 18.4816C109.396 18.4816 109.629 18.4455 109.838 18.3733C110.049 18.2982 110.231 18.1871 110.384 18.0398C110.536 17.8898 110.655 17.7036 110.738 17.4813L111.688 17.748C111.588 18.0704 111.42 18.3538 111.184 18.5983C110.948 18.8401 110.656 19.029 110.309 19.1652C109.961 19.2986 109.571 19.3653 109.137 19.3653ZM114.268 15.3806V19.2319H113.285V12.8297H114.235V13.8301H114.318C114.468 13.505 114.696 13.2438 115.002 13.0465C115.308 12.8464 115.702 12.7464 116.186 12.7464C116.619 12.7464 116.998 12.8353 117.323 13.0131C117.649 13.1882 117.901 13.4549 118.082 13.8134C118.263 14.1691 118.353 14.6192 118.353 15.1638V19.2319H117.369V15.2305C117.369 14.7276 117.239 14.3358 116.978 14.0551C116.716 13.7717 116.358 13.63 115.902 13.63C115.588 13.63 115.308 13.6981 115.06 13.8342C114.816 13.9704 114.623 14.1691 114.481 14.4303C114.339 14.6915 114.268 15.0082 114.268 15.3806ZM122.935 12.8297V13.6633H119.617V12.8297H122.935ZM120.584 11.2959H121.568V17.3979C121.568 17.6758 121.608 17.8842 121.688 18.0231C121.772 18.1593 121.877 18.251 122.005 18.2982C122.136 18.3427 122.273 18.3649 122.418 18.3649C122.526 18.3649 122.615 18.3594 122.685 18.3482C122.754 18.3344 122.81 18.3232 122.851 18.3149L123.051 19.1985C122.985 19.2235 122.892 19.2485 122.772 19.2736C122.653 19.3013 122.501 19.3152 122.318 19.3152C122.04 19.3152 121.768 19.2555 121.501 19.136C121.237 19.0165 121.017 18.8345 120.842 18.59C120.67 18.3455 120.584 18.037 120.584 17.6647V11.2959Z" fill="black"/>
<defs>
<linearGradient id="paint0_linear_6_2060" x1="0.739929" y1="15.2318" x2="115.836" y2="15.2319" gradientUnits="userSpaceOnUse">
<stop/>
<stop offset="0.0001" stop-color="#DDD3EF" stop-opacity="0.55"/>
<stop offset="0.4375" stop-color="#FDD9FF"/>
<stop offset="1" stop-color="#C1E7FF"/>
</linearGradient>
</defs>
</svg>
