<svg width="23" height="23" viewBox="0 0 23 23" fill="none" xmlns="http://www.w3.org/2000/svg">
<g clip-path="url(#clip0_6_2073)">
<path d="M11.2156 4.44061C6.58282 4.44061 2.62644 7.3222 1.0235 11.3898C2.62644 15.4573 6.58282 18.3389 11.2156 18.3389C15.853 18.3389 19.8048 15.4573 21.4077 11.3898C19.8048 7.3222 15.853 4.44061 11.2156 4.44061ZM11.2156 16.0225C8.65831 16.0225 6.58282 13.9471 6.58282 11.3898C6.58282 8.83248 8.65831 6.757 11.2156 6.757C13.7729 6.757 15.8484 8.83248 15.8484 11.3898C15.8484 13.9471 13.7729 16.0225 11.2156 16.0225ZM11.2156 8.61011C9.68215 8.61011 8.43593 9.85632 8.43593 11.3898C8.43593 12.9232 9.68215 14.1694 11.2156 14.1694C12.749 14.1694 13.9953 12.9232 13.9953 11.3898C13.9953 9.85632 12.749 8.61011 11.2156 8.61011Z" fill="black"/>
</g>
<defs>
<clipPath id="clip0_6_2073">
<rect width="22.2373" height="22.2373" fill="white" transform="translate(0.0969238 0.271118)"/>
</clipPath>
</defs>
</svg>
