<svg width="22" height="22" viewBox="0 0 22 22" fill="none" xmlns="http://www.w3.org/2000/svg">
<rect y="0.764771" width="21.6158" height="21.0462" rx="1.60264" fill="black"/>
<path d="M9.0687 3.1755C7.81931 3.24404 6.41234 3.63749 5.50086 4.17437C4.99685 4.47136 4.48006 4.97397 4.04987 5.587C3.38685 6.53002 3.1313 7.32708 3.12846 8.44907C3.12562 9.36417 3.28321 10.0242 3.76592 11.1144C3.91074 11.4419 3.96185 11.5523 4.30117 12.263C5.02524 13.7759 5.29926 14.3801 5.40432 14.6872C5.51648 15.0172 5.56617 15.1962 5.55055 15.2101C5.54061 15.219 5.54487 15.2304 5.56049 15.2444C5.57611 15.2584 5.6045 15.3472 5.63716 15.4881C5.82172 16.2712 5.90265 17.0327 5.88419 17.8412C5.87283 18.3362 5.83734 18.7424 5.76209 19.231C5.7479 19.3249 5.73796 19.4036 5.73938 19.4061C5.74648 19.4125 13.3052 19.3833 13.3123 19.3757C13.3166 19.3731 13.3279 19.212 13.3379 19.0178C13.3663 18.4492 13.3805 18.3882 13.5267 18.1915C13.7865 17.8463 13.9782 17.7727 14.8982 17.6762C16.6956 17.4846 17.2763 17.284 17.4793 16.7827C17.59 16.5085 17.5929 16.0808 17.4907 15.2368L17.4793 15.1454L17.5915 15.002C17.7235 14.8357 17.7789 14.7329 17.7987 14.6263C17.8158 14.5349 17.7987 14.46 17.7505 14.4029C17.705 14.3496 17.7065 14.3306 17.7533 14.2798C17.7845 14.2468 17.7931 14.224 17.7973 14.1567C17.8044 14.0577 17.7931 14.0031 17.6937 13.6972C17.5829 13.3558 17.5446 13.1832 17.5233 12.9294C17.5134 12.8025 17.5375 12.6057 17.5716 12.5346C17.6142 12.4509 17.7363 12.3798 17.9904 12.2922C18.2772 12.1932 18.3936 12.1222 18.4547 12.013C18.4831 11.961 18.4873 11.933 18.4873 11.8188C18.4873 11.669 18.476 11.636 18.3794 11.5091C18.2616 11.3543 17.8953 10.9684 17.3629 10.4405C16.8475 9.92769 16.6956 9.75508 16.6346 9.61039C16.6005 9.53043 16.5792 9.11286 16.5792 8.52141C16.5778 7.92869 16.5579 7.35628 16.5295 7.17097C16.4812 6.84605 16.291 6.32314 16.0666 5.90557C15.831 5.46642 15.591 5.15293 15.2446 4.83309C14.6867 4.31779 13.9597 3.92814 12.9162 3.58419C12.2149 3.35319 11.6285 3.2415 10.8221 3.18819C10.558 3.17043 9.32993 3.16154 9.0687 3.1755Z" fill="url(#paint0_linear_291_252)"/>
<defs>
<linearGradient id="paint0_linear_291_252" x1="10.8079" y1="19.407" x2="10.8079" y2="3.16864" gradientUnits="userSpaceOnUse">
<stop stop-color="#DDD3EF" stop-opacity="0.55"/>
<stop offset="0.541667" stop-color="#FDD9FF"/>
<stop offset="1" stop-color="#C1E7FF"/>
</linearGradient>
</defs>
</svg>
