<svg width="201" height="18" viewBox="0 0 201 18" fill="none" xmlns="http://www.w3.org/2000/svg">
<g clip-path="url(#clip0_6_2015)">
<path d="M192.373 16.7387L193.602 16.4824C193.987 16.4095 194.097 16.3362 194.097 16.1163V12.5666L190.519 7.09558C190.336 6.82122 190.263 6.74793 190.005 6.65621L189.492 6.47318V5.92448H194.061V6.47318L193.216 6.67464C192.905 6.74793 192.739 6.76595 192.923 7.0407L195.785 11.4323L198.335 7.09558C198.518 6.78438 198.372 6.71108 197.895 6.61977L197.088 6.45556V5.92448H200.628V6.45515L200.096 6.60134C199.803 6.67464 199.638 6.74793 199.454 7.05873L196.207 12.2189V16.1163C196.207 16.3727 196.262 16.3907 196.684 16.4824L197.932 16.7387V17.2694H192.373V16.7387ZM186.415 13.1686L184.615 8.30553L182.908 13.1686H186.415ZM179.528 16.7431L180.355 16.5437C180.593 16.4892 180.722 16.3803 180.814 16.1263L184.781 5.72902H185.809L189.758 16.1448C189.831 16.3438 189.978 16.4892 190.217 16.5617L190.86 16.7431V17.2694H186.232V16.7431L187.205 16.5437C187.517 16.4712 187.609 16.3622 187.499 16.0719L186.709 13.9668H182.65L181.897 16.1448C181.805 16.4171 181.934 16.4892 182.155 16.5437L183.109 16.7431V17.2694H179.528V16.7431ZM173.256 16.6654C175.67 16.6654 177.279 14.7257 177.279 11.5236C177.279 8.94354 176.291 6.4916 173 6.4916H172.615C172.25 6.4916 171.701 6.60134 171.427 6.72951V16.4644C171.738 16.5741 172.323 16.6654 172.89 16.6654H173.256ZM167.806 16.7383L168.812 16.5188C169.25 16.4275 169.305 16.4095 169.305 16.1532V7.05873C169.305 6.82082 169.25 6.76635 168.83 6.67424L167.806 6.45475V5.92448H173.31C176.694 5.92448 179.528 7.88218 179.528 11.4504C179.528 14.6713 177.279 17.2694 173.749 17.2694H167.805V16.7383H167.806ZM164.535 11.4796C164.535 8.96597 163.596 6.37986 160.958 6.37986C158.358 6.37986 157.401 8.96597 157.401 11.4792C157.401 14.0108 158.34 16.796 160.959 16.796C163.578 16.796 164.535 14.0108 164.535 11.4792L164.535 11.4796ZM155.107 11.4796C155.107 8.38683 157.473 5.72902 160.958 5.72902C164.445 5.72902 166.829 8.36921 166.829 11.4792C166.829 14.608 164.463 17.4649 160.959 17.4649C157.473 17.4649 155.107 14.5904 155.107 11.4796ZM143.054 16.5076L144.743 16.1664C145.376 16.035 145.455 16.035 145.455 15.6674V1.90413H144.532C142.923 1.90413 141.709 2.24536 141.26 2.53453C140.759 3.26947 140.258 4.74056 139.994 5.87001H139.281L139.466 0.643311C139.994 0.85358 140.917 0.984548 141.893 0.984548H152.368C152.922 0.984548 154.136 0.85358 154.531 0.669744L154.715 5.89644H153.977C153.74 4.76699 153.159 3.26947 152.711 2.56017C151.735 1.98263 150.916 1.90413 149.703 1.90413H148.516V15.6674C148.516 16.035 148.595 16.035 149.202 16.1664L150.943 16.5076V17.2694H143.054V16.5076Z" fill="white" fill-opacity="0.58"/>
<path fill-rule="evenodd" clip-rule="evenodd" d="M130.49 13.3172H131.07C131.22 14.0782 131.444 15.1103 131.818 15.8168C132.249 16.3423 132.847 16.8489 133.952 16.8489C135.486 16.8489 136.348 15.9253 136.348 14.6397C136.348 13.3717 135.562 12.8102 134.532 12.3936L133.353 11.9226C131.669 11.2526 130.677 10.329 130.677 8.73534C130.677 6.90619 132.492 5.72909 134.644 5.72909C135.749 5.72909 136.553 6.01866 137.152 6.34467L137.545 5.82H137.938L138.051 9.36895H137.507C137.358 8.6268 137.021 7.73886 136.702 7.26826C136.235 6.81568 135.636 6.32665 134.625 6.32665C133.578 6.32665 132.698 7.01473 132.698 8.17382C132.698 9.15187 133.203 9.69536 134.232 10.166L135.935 10.945C137.077 11.4696 138.499 12.2667 138.499 14.1142C138.499 16.2329 136.647 17.4649 134.158 17.4649C132.735 17.4649 131.874 17.1934 131.294 16.9214L130.976 17.4649H130.564C130.62 16.7945 130.527 14.8388 130.49 13.3172ZM113.733 7.05839C113.623 6.76601 113.441 6.71074 113.167 6.61943L112.71 6.45522V5.92454H117.239V6.45481L116.362 6.65627C115.997 6.74759 115.906 6.78404 115.979 7.02194L118.535 14.8315L120.982 8.22909L120.507 7.05839C120.398 6.76601 120.215 6.69272 119.978 6.61943L119.466 6.45522V5.92454H123.849V6.45481L123.027 6.65627C122.68 6.74759 122.644 6.87575 122.735 7.11326L125.492 14.7767L128.085 7.11326C128.195 6.80246 128.103 6.74759 127.61 6.63785L126.734 6.45481V5.92454H130.294V6.45481L129.71 6.63785C129.454 6.71074 129.29 6.72957 129.162 7.07681L125.2 17.4649H124.36L121.475 9.54557L118.188 17.4649H117.33L113.733 7.05839ZM102.942 16.7388L103.951 16.5193C104.391 16.428 104.446 16.41 104.446 16.1536V7.0636C104.446 6.80727 104.391 6.77122 103.969 6.6795L102.942 6.46002V5.93014H110.241C110.755 5.93014 111.434 5.8204 111.709 5.72909L112.039 9.36815H111.543C111.323 8.52707 110.993 7.6127 110.627 7.13729C110.223 6.88096 109.159 6.58859 108.004 6.58859H107.839C107.398 6.58859 106.959 6.62503 106.573 6.69833V10.9962H108.609C109.123 10.6854 109.563 9.86198 109.654 9.29485H110.021V13.4838H109.655C109.49 12.7341 109.141 12.094 108.609 11.728H106.574V16.5017C106.977 16.5566 107.344 16.6294 108.114 16.6294H108.536C109.251 16.6294 110.388 16.4464 110.902 16.0627C111.286 15.6053 111.782 14.5264 112.02 13.7033H112.515L111.984 17.2699H102.942V16.7388ZM88.0833 3.75896V12.7825C88.0833 13.7818 88.1886 15.045 88.2415 15.5445C88.294 15.8865 88.3737 16.0183 88.7157 16.0707L90.8512 16.3867V17.1493H84.5772V16.3867L86.1592 16.1236C86.5013 16.0707 86.5806 15.9394 86.6334 15.5973C86.6599 15.0711 86.7912 13.8082 86.7912 12.8086V2.49614C86.7912 2.07561 86.6863 2.07561 86.0271 1.9178L84.7354 1.62823V0.839222H89.3225L98.6813 12.519V5.25848C98.6813 4.15347 98.602 3.12775 98.5227 2.54901C98.4966 2.23341 98.3909 1.97027 98.022 1.9178L95.8865 1.6018V0.838821L102.161 0.838821V1.6018L100.605 1.86494C100.289 1.9178 100.078 2.02274 100.078 2.46971C100.052 3.02242 99.9461 4.0221 99.9461 5.20602V17.4649H99.0766L88.0833 3.75936V3.75896Z" fill="white" fill-opacity="0.58"/>
<path d="M74.8271 16.7387L75.8103 16.5188C76.2473 16.4275 76.3018 16.4095 76.3018 16.1528V7.05871C76.3018 6.80238 76.2473 6.78436 75.8288 6.69304L74.8087 6.45514V5.92446H80.1074V6.45514L78.8875 6.69304C78.487 6.76593 78.4141 6.8212 78.4141 7.05871V15.7691C78.4141 16.5921 79.2515 16.6286 79.8163 16.6286H80.0165C80.8724 16.6286 81.8737 16.3907 82.3475 16.0614C82.712 15.6041 83.0941 14.8903 83.3308 14.2864L83.6952 13.3351H84.1863L83.3492 17.2694H74.8267L74.8271 16.7387ZM70.1687 13.1685L68.3684 8.30551L66.661 13.1685H70.1687ZM63.2815 16.7431L64.1081 16.5437C64.3468 16.4892 64.4754 16.3802 64.5671 16.1263L68.5342 5.72901H69.5627L73.511 16.1447C73.5843 16.3438 73.7313 16.4892 73.97 16.5617L74.6132 16.7431V17.2694H69.9849V16.7431L70.9581 16.5437C71.2705 16.4712 71.3626 16.3622 71.2521 16.0719L70.4623 13.9668H66.4043L65.6513 16.1447C65.5592 16.4171 65.6878 16.4892 65.9081 16.5437L66.8633 16.7431V17.2694H63.2819V16.7431H63.2815ZM52.5361 11.6149C52.5361 8.15571 55.2484 5.72901 58.8955 5.72901C60.0133 5.72901 61.0398 5.89161 61.9378 6.29052L62.2862 5.83754H62.6707L62.8726 9.73133H62.3775C62.2129 8.95273 61.8276 7.66669 61.4612 7.17766C60.9845 6.7427 60.1603 6.30855 58.9499 6.30855C55.908 6.30855 54.8819 8.93431 54.8819 11.506C54.8819 14.6757 56.4948 16.8312 58.694 16.8312C59.7389 16.8312 60.6549 16.4147 61.15 16.0703C61.5533 15.6721 62.1576 14.2051 62.3775 13.4261H62.891L62.2678 16.7944C61.5533 17.1204 60.1415 17.4648 58.6207 17.4648C54.6436 17.4648 52.5361 14.6941 52.5361 11.6149ZM46.4796 16.7387L47.4772 16.5188C47.9126 16.4275 47.9671 16.4095 47.9671 16.1528V7.05871C47.9671 6.80238 47.9126 6.78436 47.4957 6.69304L46.4796 6.45514V5.92446H51.5593V6.45514L50.5612 6.69304C50.1439 6.78436 50.0718 6.80278 50.0718 7.05871V16.1528C50.0718 16.4091 50.1262 16.4275 50.5432 16.5188L51.5593 16.7387V17.2694H46.4796V16.7387ZM39.2303 16.6654C41.6442 16.6654 43.2534 14.7257 43.2534 11.5236C43.2534 8.94352 42.2658 6.49158 38.974 6.49158H38.5903C38.2242 6.49158 37.6759 6.60132 37.4015 6.72949V16.4644C37.7123 16.5741 38.2975 16.6654 38.8646 16.6654H39.2303ZM33.7805 16.7383L34.7862 16.5188C35.2252 16.4275 35.28 16.4095 35.28 16.1532V7.05871C35.28 6.8208 35.2251 6.76633 34.8046 6.67422L33.7805 6.45474V5.92446H39.2851C42.6683 5.92446 45.5027 7.88216 45.5027 11.4503C45.5027 14.6713 43.2534 17.2694 39.7241 17.2694H33.7805V16.7383ZM23.2302 16.7387L24.2391 16.5192C24.6788 16.4279 24.7341 16.4099 24.7341 16.1536V7.06352C24.7341 6.80719 24.6788 6.77114 24.2571 6.67942L23.2302 6.45994V5.93006H30.5295C31.043 5.93006 31.7215 5.82032 31.9966 5.72901L32.3266 9.36807H31.832C31.6117 8.52699 31.2817 7.61262 30.9152 7.13721C30.5115 6.88088 29.4481 6.58851 28.2923 6.58851H28.1273C27.6871 6.58851 27.2469 6.62495 26.862 6.69825V10.9962H28.8974C29.4113 10.6854 29.8511 9.8619 29.9428 9.29477H30.3097V13.4837H29.9428C29.7778 12.734 29.4293 12.094 28.8974 11.7279H26.8616V16.5016C27.265 16.5565 27.6318 16.6294 28.402 16.6294H28.8237C29.5391 16.6294 30.6765 16.4463 31.1896 16.0626C31.5749 15.6053 32.0699 14.5263 32.3082 13.7032H32.8036L32.2718 17.2698H23.2302V16.7387ZM0.371704 16.4303L2.15599 16.1672C2.54969 16.1143 2.65423 15.7987 2.7071 15.4294C2.73353 14.9028 2.83846 14.1129 2.83846 12.9018V2.5261C2.83846 2.07833 2.7071 2.10436 2.05106 1.94656L0.686107 1.63056V0.840744H5.67249L11.3666 12.77L17.2453 0.866777H22.1264V1.60452L20.6565 1.97299C20.1322 2.10436 20.0273 2.15723 20.0273 2.49967V15.5876C20.0273 15.9565 20.1058 15.9825 20.7094 16.1143L22.1528 16.4307V17.1941H15.0145V16.4303L16.248 16.1407C16.8516 16.009 16.9565 15.9565 16.9565 15.588V4.05326L10.5271 17.1685H10.3693L4.17658 4.36926V12.8754C4.17658 14.034 4.25508 14.8239 4.30795 15.377C4.30795 15.7194 4.38645 16.0879 4.75372 16.1407L6.6169 16.4303V17.1941H0.371704V16.4303Z" fill="white" fill-opacity="0.58"/>
</g>
<defs>
<clipPath id="clip0_6_2015">
<rect width="200.257" height="16.8215" fill="white" transform="translate(0.371765 0.643311)"/>
</clipPath>
</defs>
</svg>
