<svg width="12" height="11" viewBox="0 0 12 11" fill="none" xmlns="http://www.w3.org/2000/svg">
<g clip-path="url(#clip0_6_2034)">
<path d="M9.1966 10.1974C8.85103 10.4435 6.63374 8.88323 6.20907 8.8798C5.78441 8.8764 3.54215 10.4008 3.20062 10.1491C2.85909 9.89744 3.66201 7.31251 3.53406 6.90874C3.4061 6.50497 1.25928 4.84955 1.39376 4.44788C1.52826 4.04621 4.24179 4.00891 4.58736 3.76277C4.93292 3.51666 5.84839 0.969181 6.27308 0.97258C6.69772 0.97601 7.57182 3.53788 7.91336 3.78955C8.25489 4.04119 10.9675 4.12219 11.0955 4.52596C11.2234 4.92972 9.05014 6.55038 8.91563 6.95205C8.78115 7.35372 9.54216 9.95122 9.1966 10.1974Z" fill="#F8B84E"/>
</g>
<defs>
<clipPath id="clip0_6_2034">
<rect width="10.3706" height="10.3706" fill="white" transform="translate(0.739929 0.50351)"/>
</clipPath>
</defs>
</svg>
