<svg width="12" height="11" viewBox="0 0 12 11" fill="none" xmlns="http://www.w3.org/2000/svg">
<g clip-path="url(#clip0_6_2052)">
<path d="M9.14106 10.1113C8.79549 10.3574 6.57819 8.79716 6.15353 8.79373C5.72887 8.79033 3.48661 10.3147 3.14508 10.063C2.80355 9.81137 3.60647 7.22644 3.47852 6.82267C3.35056 6.4189 1.20374 4.76348 1.33821 4.36181C1.47272 3.96014 4.18625 3.92283 4.53182 3.6767C4.87738 3.43059 5.79285 0.883109 6.21754 0.886509C6.64217 0.889938 7.51628 3.45181 7.85782 3.70348C8.19935 3.95512 10.912 4.03612 11.0399 4.43989C11.1679 4.84365 8.9946 6.46431 8.86009 6.86598C8.72561 7.26765 9.48662 9.86515 9.14106 10.1113Z" fill="#F8B84E"/>
</g>
<defs>
<clipPath id="clip0_6_2052">
<rect width="10.3706" height="10.3706" fill="white" transform="translate(0.684387 0.41748)"/>
</clipPath>
</defs>
</svg>
