<svg width="11" height="11" viewBox="0 0 11 11" fill="none" xmlns="http://www.w3.org/2000/svg">
<g clip-path="url(#clip0_6_2070)">
<path d="M8.49286 10.0254C8.1473 10.2715 5.93 8.71125 5.50534 8.70782C5.08068 8.70442 2.83842 10.2288 2.49689 9.97713C2.15535 9.72546 2.95828 7.14053 2.83032 6.73676C2.70237 6.33299 0.555542 4.67757 0.69002 4.2759C0.824529 3.87424 3.53806 3.83693 3.88362 3.59079C4.22919 3.34468 5.14466 0.797202 5.56935 0.800602C5.99398 0.804031 6.86809 3.36591 7.20962 3.61757C7.55116 3.86921 10.2638 3.95021 10.3918 4.35398C10.5197 4.75775 8.34641 6.3784 8.2119 6.78007C8.07742 7.18174 8.83843 9.77924 8.49286 10.0254Z" fill="#F8B84E"/>
</g>
<defs>
<clipPath id="clip0_6_2070">
<rect width="10.3706" height="10.3706" fill="white" transform="translate(0.0362549 0.331543)"/>
</clipPath>
</defs>
</svg>
